<?xml version="1.0" encoding="UTF-8" standalone="no"?>
<!DOCTYPE svg PUBLIC "-//W3C//DTD SVG 1.1//EN" "http://www.w3.org/Graphics/SVG/1.1/DTD/svg11.dtd">
<svg width="100%" height="100%" viewBox="0 0 1000 400" version="1.1" xmlns="http://www.w3.org/2000/svg" xmlns:xlink="http://www.w3.org/1999/xlink" xml:space="preserve" xmlns:serif="http://www.serif.com/" style="fill-rule:evenodd;clip-rule:evenodd;stroke-linejoin:round;stroke-miterlimit:2;">
    <g transform="matrix(1,0,0,1,-7,-3)">
        <path d="M921.895,208.522C923.124,198.616 917.148,177.552 911.337,171.557C901.567,161.479 886.788,167.89 882.751,172.791C873.538,183.976 860.696,191.212 844.224,194.5C834.714,196.398 826.481,195.991 819.525,193.279C812.57,190.566 808.601,185.303 807.619,177.488C807.057,173.023 807.732,168.692 809.642,164.496C811.551,160.3 814.586,157.787 818.747,156.956C822.907,156.126 825.792,157.267 827.402,160.379C824.62,164.558 823.521,168.973 824.106,173.625C825.275,182.928 830.614,186.631 840.124,184.733C845.728,183.614 850.341,180.5 853.964,175.39C857.586,170.28 859.076,165.166 858.433,160.05C857.79,154.933 856.204,150.624 853.675,147.123C851.146,143.623 848.251,140.672 844.99,138.271C841.729,135.87 838.468,133.47 835.207,131.069C827.333,125.202 822.805,117.57 821.625,108.174C820.444,98.778 822.719,90.217 828.45,82.493C834.181,74.769 842.736,69.771 854.113,67.5C861.245,66.076 867.449,66.268 872.725,68.076C878,69.884 881.006,73.719 881.743,79.58C882.479,85.441 881.503,90.833 878.815,95.757C876.126,100.681 872.022,103.693 866.503,104.795C860.984,105.896 857.874,103.656 857.172,98.074C857.009,96.772 858.716,94.428 862.294,91.044C865.873,87.659 867.487,84.571 867.136,81.78C866.785,78.99 865.461,77.108 863.163,76.136C860.864,75.165 857.763,75.068 853.857,75.848C849.951,76.628 846.36,78.87 843.083,82.576C839.806,86.282 838.471,90.554 839.079,95.392C839.687,100.229 842.128,104.415 846.402,107.949C850.676,111.483 855.207,114.297 859.997,116.393C864.786,118.489 869.382,121.815 873.784,126.373C878.187,130.93 880.756,136.139 881.493,142C882.229,147.861 881.659,153.363 879.781,158.506C877.903,163.649 875.442,167.955 872.396,171.424C881.344,165.061 887.067,158.648 894.03,155.819C907.379,150.395 919.808,155.28 925.127,158.245C931.088,161.569 938.756,167.229 946.977,176.289C956.423,186.698 962.474,209.663 964.261,219.849C967.284,237.075 958.935,261.317 956.947,265.686C954.751,270.514 940.436,297.263 929.002,306.264C906.533,323.955 889.461,332.105 867.176,338.938C840.023,347.263 800.038,352.211 766.089,356.215C731.064,360.345 693.4,361.47 657.03,363.72C619.465,366.044 579.441,367.498 540.695,370.16C496.732,373.18 440.81,378.205 393.254,381.842C347.3,385.355 300.927,391.242 255.362,391.976C210.161,392.705 156.158,389.781 119.864,386.25C92.092,383.547 37.595,370.787 37.595,370.787L31.563,290.882C31.563,290.882 77.082,304.497 100.553,307.331C128.779,310.739 167.439,311.625 200.919,311.331C235.753,311.025 275.971,307.599 309.559,305.495C340.543,303.554 371.45,300.438 402.447,298.705C434.187,296.931 467.465,295.555 500,294.848C534.806,294.091 578.718,294.493 611.282,294.165C639.317,293.883 667.385,294.378 695.382,292.882C724.916,291.304 760.756,287.919 788.485,284.695C813.026,281.843 842.722,280.301 861.76,273.542C877.596,267.92 892.689,254.979 902.711,244.142C911.868,234.242 920.687,218.246 921.895,208.522Z" style="fill:rgb(112,168,200);"/>
        <path d="M886.063,154.557C888.062,153.189 890.055,152.038 892.148,151.187C907.348,145.011 921.506,150.501 927.562,153.878C933.864,157.392 941.989,163.351 950.68,172.929C960.684,183.954 967.293,208.196 969.186,218.985C972.401,237.309 963.612,263.108 961.499,267.756C959.198,272.815 944.076,300.76 932.095,310.193C909.036,328.348 891.512,336.706 868.641,343.719C841.251,352.117 800.921,357.142 766.674,361.18C731.561,365.321 693.801,366.455 657.339,368.71C619.784,371.034 579.773,372.487 541.037,375.148C497.086,378.167 441.178,383.192 393.635,386.827C347.581,390.348 301.107,396.239 255.443,396.976C210.054,397.707 155.825,394.772 119.379,391.226C91.387,388.502 36.455,375.655 36.455,375.655C34.33,375.158 32.773,373.339 32.609,371.163L26.577,291.259C26.453,289.617 27.145,288.02 28.427,286.987C29.71,285.955 31.418,285.62 32.995,286.092C32.995,286.092 77.963,299.567 101.153,302.367C129.198,305.754 167.609,306.624 200.875,306.331C235.623,306.026 275.741,302.604 309.246,300.505C340.242,298.563 371.16,295.446 402.168,293.713C433.963,291.935 467.299,290.558 499.891,289.849C534.715,289.092 578.651,289.493 611.232,289.165C639.195,288.884 667.191,289.382 695.115,287.889C724.551,286.316 760.271,282.941 787.908,279.729C812.078,276.919 841.338,275.487 860.087,268.83C875.172,263.475 889.493,251.07 899.04,240.747C907.505,231.595 915.817,216.895 916.933,207.906C917.603,202.507 915.786,193.482 913.19,185.932C911.572,181.228 909.72,177.073 907.747,175.038C903.425,170.579 897.737,170.671 893.265,172.1C890.305,173.045 887.792,174.535 886.61,175.969C876.698,188.003 862.924,195.866 845.202,199.403C834.614,201.517 825.453,200.957 817.709,197.937C808.954,194.523 803.894,187.948 802.658,178.112C801.98,172.72 802.785,167.49 805.091,162.425C807.737,156.611 812.004,153.204 817.768,152.053C824.613,150.687 829.195,152.962 831.843,158.081C832.678,159.696 832.571,161.636 831.564,163.149C829.492,166.261 828.631,169.538 829.067,173.002C829.434,175.924 830.159,178.107 831.836,179.271C833.581,180.48 836.038,180.45 839.145,179.829C843.509,178.958 847.064,176.477 849.885,172.498C852.686,168.546 853.969,164.63 853.472,160.673C852.945,156.476 851.696,152.923 849.622,150.051C847.409,146.987 844.88,144.399 842.026,142.298C838.765,139.897 835.504,137.496 832.22,135.078C823.187,128.348 818.018,119.577 816.664,108.798C815.317,98.084 817.9,88.321 824.435,79.514C830.859,70.856 840.382,65.142 853.135,62.597C861.264,60.974 868.333,61.286 874.346,63.347C881.531,65.809 885.7,70.973 886.704,78.957C887.578,85.913 886.394,92.309 883.203,98.153C879.769,104.441 874.53,108.291 867.482,109.698C863.039,110.585 859.613,109.802 857.109,107.998C854.604,106.194 852.776,103.193 852.211,98.698C852.067,97.553 852.211,96.088 853.054,94.394C853.885,92.724 855.758,90.344 858.859,87.411C859.95,86.379 860.817,85.396 861.43,84.437C861.899,83.7 862.257,83.057 862.175,82.404C862.077,81.628 861.854,81.012 861.215,80.742C859.64,80.076 857.512,80.217 854.836,80.751C851.91,81.335 849.283,83.113 846.828,85.888C844.557,88.457 843.619,91.415 844.04,94.768C844.494,98.38 846.398,101.457 849.588,104.096C853.491,107.323 857.627,109.899 862.001,111.813C867.336,114.147 872.477,117.822 877.38,122.899C882.581,128.282 885.583,134.452 886.454,141.376C887.03,145.963 886.895,150.356 886.063,154.557ZM921.895,208.522C923.124,198.616 917.148,177.552 911.337,171.557C901.567,161.479 886.788,167.89 882.751,172.791C873.538,183.976 860.696,191.212 844.224,194.5C834.714,196.398 826.481,195.991 819.525,193.279C812.57,190.566 808.601,185.303 807.619,177.488C807.057,173.023 807.732,168.692 809.642,164.496C811.551,160.3 814.586,157.787 818.747,156.956C822.907,156.126 825.792,157.267 827.402,160.379C824.62,164.558 823.521,168.973 824.106,173.625C825.275,182.928 830.614,186.631 840.124,184.733C845.728,183.614 850.341,180.5 853.964,175.39C857.586,170.28 859.076,165.166 858.433,160.05C857.79,154.933 856.204,150.624 853.675,147.123C851.146,143.623 848.251,140.672 844.99,138.271C841.729,135.87 838.468,133.47 835.207,131.069C827.333,125.202 822.805,117.57 821.625,108.174C820.444,98.778 822.719,90.217 828.45,82.493C834.181,74.769 842.736,69.771 854.113,67.5C861.245,66.076 867.449,66.268 872.725,68.076C878,69.884 881.006,73.719 881.743,79.58C882.479,85.441 881.503,90.833 878.815,95.757C876.126,100.681 872.022,103.693 866.503,104.795C860.984,105.896 857.874,103.656 857.172,98.074C857.009,96.772 858.716,94.428 862.294,91.044C865.873,87.659 867.487,84.571 867.136,81.78C866.785,78.99 865.461,77.108 863.163,76.136C860.864,75.165 857.763,75.068 853.857,75.848C849.951,76.628 846.36,78.87 843.083,82.576C839.806,86.282 838.471,90.554 839.079,95.392C839.687,100.229 842.128,104.415 846.402,107.949C850.676,111.483 855.207,114.297 859.997,116.393C864.786,118.489 869.382,121.815 873.784,126.373C878.187,130.93 880.756,136.139 881.493,142C882.229,147.861 881.659,153.363 879.781,158.506C877.903,163.649 875.442,167.955 872.396,171.424C881.344,165.061 887.067,158.648 894.03,155.819C907.379,150.395 919.808,155.28 925.127,158.245C931.088,161.569 938.756,167.229 946.977,176.289C956.423,186.698 962.474,209.663 964.261,219.849C967.284,237.075 958.935,261.317 956.947,265.686C954.751,270.514 940.436,297.263 929.002,306.264C906.533,323.955 889.461,332.105 867.176,338.938C840.023,347.263 800.038,352.211 766.089,356.215C731.064,360.345 693.4,361.47 657.03,363.72C619.465,366.044 579.441,367.498 540.695,370.16C496.732,373.18 440.81,378.205 393.254,381.842C347.3,385.355 300.927,391.242 255.362,391.976C210.161,392.705 156.158,389.781 119.864,386.25C92.092,383.547 37.595,370.787 37.595,370.787L31.563,290.882C31.563,290.882 77.082,304.497 100.553,307.331C128.779,310.739 167.439,311.625 200.919,311.331C235.753,311.025 275.971,307.599 309.559,305.495C340.543,303.554 371.45,300.438 402.447,298.705C434.187,296.931 467.465,295.555 500,294.848C534.806,294.091 578.718,294.493 611.282,294.165C639.317,293.883 667.385,294.378 695.382,292.882C724.916,291.304 760.756,287.919 788.485,284.695C813.026,281.843 842.722,280.301 861.76,273.542C877.596,267.92 892.689,254.979 902.711,244.142C911.868,234.242 920.687,218.246 921.895,208.522Z" style="fill:rgb(37,37,35);"/>
    </g>
    <g transform="matrix(1.5075,-0.090204,0.0508433,0.849699,-934.935,217.507)">
        <g transform="matrix(0.93855,0.288354,-0.0961762,0.985335,53.7722,-207.077)">
            <path d="M668.927,203.38L684.308,203.38C689.166,203.38 692.846,203.758 695.349,204.515C697.851,205.271 699.871,206.802 701.41,209.107C702.948,211.413 703.717,215.128 703.717,220.251C703.717,223.716 703.174,226.131 702.087,227.497C701.001,228.864 698.858,229.913 695.66,230.645C699.225,231.451 701.642,232.788 702.911,234.657C704.181,236.526 704.815,239.39 704.815,243.25L704.815,248.746C704.815,252.752 704.358,255.72 703.442,257.65C702.527,259.58 701.068,260.899 699.066,261.607C697.064,262.316 692.962,262.67 686.761,262.67L668.927,262.67L668.927,203.38ZM684.344,213.524L684.344,226.708C685.003,226.684 685.516,226.671 685.882,226.671C687.396,226.671 688.36,226.299 688.775,225.554C689.19,224.81 689.398,222.68 689.398,219.164C689.398,217.309 689.227,216.008 688.885,215.264C688.543,214.519 688.098,214.049 687.549,213.854C686.999,213.659 685.931,213.549 684.344,213.524ZM684.344,235.936L684.344,252.526C686.517,252.453 687.903,252.111 688.501,251.5C689.099,250.89 689.398,249.389 689.398,246.996L689.398,241.466C689.398,238.927 689.129,237.389 688.592,236.852C688.055,236.315 686.639,236.01 684.344,235.936Z" style="fill:rgb(235,235,235);fill-rule:nonzero;"/>
            <path d="M701.984,230.644C702.791,231.254 703.441,231.932 703.938,232.664C705.51,234.978 706.379,238.471 706.379,243.25L706.379,248.746C706.379,253.513 705.752,257.007 704.662,259.303C703.552,261.643 701.814,263.336 699.386,264.194C697.332,264.921 693.124,265.313 686.761,265.313L668.927,265.313C668.063,265.313 667.363,264.13 667.363,262.67L667.363,203.38C667.363,201.92 668.063,200.737 668.927,200.737L684.308,200.737C689.287,200.737 693.059,201.138 695.624,201.913C698.446,202.765 700.713,204.53 702.448,207.13C704.267,209.858 705.281,214.19 705.281,220.251C705.281,224.772 704.439,227.835 703.021,229.618C702.738,229.973 702.393,230.317 701.984,230.644ZM668.927,203.38L684.308,203.38C689.166,203.38 692.846,203.758 695.349,204.515C697.851,205.271 699.871,206.802 701.41,209.107C702.948,211.413 703.717,215.128 703.717,220.251C703.717,223.716 703.174,226.131 702.087,227.497C701.001,228.864 698.858,229.913 695.66,230.645C699.225,231.451 701.642,232.788 702.911,234.657C704.181,236.526 704.815,239.39 704.815,243.25L704.815,248.746C704.815,252.752 704.358,255.72 703.442,257.65C702.527,259.58 701.068,260.899 699.066,261.607C697.064,262.316 692.962,262.67 686.761,262.67L668.927,262.67L668.927,203.38ZM684.344,235.936L684.344,252.526C686.517,252.453 687.903,252.111 688.501,251.5C689.099,250.89 689.398,249.389 689.398,246.996L689.398,241.466C689.398,238.927 689.129,237.389 688.592,236.852C688.055,236.315 686.639,236.01 684.344,235.936ZM685.908,238.684L685.908,249.794C686.726,249.717 687.303,249.579 687.633,249.293C687.656,249.203 687.711,248.982 687.734,248.821C687.805,248.319 687.834,247.71 687.834,246.996C687.834,246.996 687.834,241.466 687.834,241.466C687.834,240.518 687.706,239.427 687.656,239.04C687.555,238.997 687.423,238.97 687.267,238.926C686.898,238.821 686.445,238.741 685.908,238.684ZM684.344,213.524L684.344,226.708C685.003,226.684 685.516,226.671 685.882,226.671C687.396,226.671 688.36,226.299 688.775,225.554C689.19,224.81 689.398,222.68 689.398,219.164C689.398,217.309 689.227,216.008 688.885,215.264C688.543,214.519 688.098,214.049 687.549,213.854C686.999,213.659 685.931,213.549 684.344,213.524ZM685.908,216.229L685.908,224.028C686.511,224.026 687.006,223.964 687.392,223.815C687.455,223.791 687.532,223.749 687.594,223.712C687.631,223.479 687.693,223.066 687.723,222.704C687.799,221.779 687.834,220.598 687.834,219.164C687.834,218.095 687.846,217.313 687.649,216.884C687.541,216.649 687.4,216.502 687.226,216.441C686.942,216.339 686.502,216.272 685.908,216.229Z" style="fill:rgb(37,37,35);"/>
        </g>
        <g transform="matrix(0.94844,0.15622,-0.052105,0.995718,37.0722,-116.338)">
            <path d="M736.996,203.38L745.813,262.67L730.056,262.67L729.229,252.013L723.714,252.013L722.787,262.67L706.848,262.67L714.712,203.38L736.996,203.38ZM728.825,241.503C728.045,234.787 727.262,226.487 726.477,216.6C724.906,227.953 723.92,236.254 723.518,241.503L728.825,241.503Z" style="fill:rgb(235,235,235);fill-rule:nonzero;"/>
            <path d="M725.065,254.656L724.335,263.054C724.222,264.352 723.563,265.313 722.787,265.313L706.848,265.313C706.373,265.313 705.924,264.948 705.627,264.322C705.33,263.695 705.218,262.875 705.322,262.092L713.186,202.802C713.346,201.595 713.98,200.737 714.712,200.737L736.996,200.737C737.713,200.737 738.338,201.561 738.513,202.736L747.33,262.026C747.447,262.816 747.342,263.653 747.046,264.295C746.75,264.938 746.295,265.313 745.813,265.313L730.056,265.313C729.271,265.313 728.608,264.329 728.506,263.014L727.857,254.656L725.065,254.656ZM736.996,203.38L745.813,262.67L730.056,262.67L729.229,252.013L723.714,252.013L722.787,262.67L706.848,262.67L714.712,203.38L736.996,203.38ZM728.825,241.503C728.045,234.787 727.262,226.487 726.477,216.6C724.906,227.953 723.92,236.254 723.518,241.503L728.825,241.503ZM726.165,231.254C725.816,234.154 725.538,236.689 725.33,238.86L726.937,238.86C726.68,236.495 726.422,233.959 726.165,231.254Z" style="fill:rgb(37,37,35);"/>
        </g>
        <g transform="matrix(0.950264,0.11621,-0.0387602,0.997633,33.6998,-86.8887)">
            <path d="M781.097,221.325L766.778,221.325L766.778,216.93C766.778,214.879 766.595,213.573 766.229,213.012C765.863,212.45 765.252,212.169 764.398,212.169C763.47,212.169 762.768,212.548 762.292,213.305C761.816,214.063 761.578,215.211 761.578,216.75C761.578,218.729 761.846,220.219 762.381,221.221C762.892,222.223 764.344,223.431 766.738,224.846C773.601,228.919 777.923,232.262 779.705,234.874C781.488,237.487 782.379,241.698 782.379,247.509C782.379,251.732 781.884,254.845 780.896,256.847C779.907,258.849 777.996,260.527 775.164,261.882C772.332,263.237 769.037,263.915 765.277,263.915C761.151,263.915 757.629,263.134 754.712,261.571C751.794,260.009 749.884,258.019 748.98,255.602C748.077,253.185 747.625,249.755 747.625,245.311L747.625,241.43L761.944,241.43L761.944,248.644C761.944,250.866 762.146,252.294 762.549,252.929C762.951,253.563 763.665,253.881 764.691,253.881C765.716,253.881 766.479,253.478 766.98,252.672C767.48,251.867 767.73,250.67 767.73,249.083C767.73,245.592 767.254,243.309 766.302,242.235C765.326,241.161 762.921,239.367 759.088,236.852C755.255,234.313 752.716,232.47 751.471,231.322C750.226,230.175 749.194,228.588 748.376,226.561C747.558,224.535 747.149,221.947 747.149,218.798C747.149,214.257 747.729,210.936 748.889,208.837C750.049,206.737 751.922,205.095 754.51,203.911C757.098,202.727 760.223,202.135 763.885,202.135C767.889,202.135 771.301,202.782 774.121,204.076C776.941,205.37 778.808,207 779.724,208.965C780.639,210.93 781.097,214.269 781.097,218.981L781.097,221.325Z" style="fill:rgb(235,235,235);fill-rule:nonzero;"/>
            <path d="M757.726,238.786C754.242,236.456 751.909,234.737 750.722,233.643C749.259,232.294 748.045,230.432 747.084,228.051C746.108,225.632 745.585,222.558 745.585,218.798C745.585,213.412 746.37,209.523 747.745,207.033C749.062,204.65 751.164,202.704 754.101,201.36C756.802,200.124 760.063,199.492 763.885,199.492C768.05,199.492 771.598,200.179 774.531,201.525C777.787,203.02 779.895,205.06 780.953,207.33C782.022,209.624 782.661,213.48 782.661,218.981L782.661,221.325C782.661,222.784 781.961,223.968 781.097,223.968L769.901,223.968C775.516,227.503 779.116,230.511 780.73,232.878C782.803,235.916 783.943,240.751 783.943,247.509C783.943,252.517 783.269,256.167 782.096,258.541C780.967,260.828 778.826,262.878 775.591,264.426C772.636,265.839 769.199,266.558 765.277,266.558C760.966,266.558 757.287,265.724 754.239,264.091C750.859,262.28 748.705,259.814 747.658,257.013C746.629,254.26 746.061,250.373 746.061,245.311L746.061,241.43C746.061,239.97 746.762,238.786 747.625,238.786L757.726,238.786ZM781.097,221.325L766.778,221.325L766.778,216.93C766.778,214.879 766.595,213.573 766.229,213.012C765.863,212.45 765.252,212.169 764.398,212.169C763.47,212.169 762.768,212.548 762.292,213.305C761.816,214.063 761.578,215.211 761.578,216.75C761.578,218.729 761.846,220.219 762.381,221.221C762.892,222.223 764.344,223.431 766.738,224.846C773.601,228.919 777.923,232.262 779.705,234.874C781.488,237.487 782.379,241.698 782.379,247.509C782.379,251.732 781.884,254.845 780.896,256.847C779.907,258.849 777.996,260.527 775.164,261.882C772.332,263.237 769.037,263.915 765.277,263.915C761.151,263.915 757.629,263.134 754.712,261.571C751.794,260.009 749.884,258.019 748.98,255.602C748.077,253.185 747.625,249.755 747.625,245.311L747.625,241.43L761.944,241.43L761.944,248.644C761.944,250.866 762.146,252.294 762.549,252.929C762.951,253.563 763.665,253.881 764.691,253.881C765.716,253.881 766.479,253.478 766.98,252.672C767.48,251.867 767.73,250.67 767.73,249.083C767.73,245.592 767.254,243.309 766.302,242.235C765.326,241.161 762.921,239.367 759.088,236.852C755.255,234.313 752.716,232.47 751.471,231.322C750.226,230.175 749.194,228.588 748.376,226.561C747.558,224.535 747.149,221.947 747.149,218.798C747.149,214.257 747.729,210.936 748.889,208.837C750.049,206.737 751.922,205.095 754.51,203.911C757.098,202.727 760.223,202.135 763.885,202.135C767.889,202.135 771.301,202.782 774.121,204.076C776.941,205.37 778.808,207 779.724,208.965C780.639,210.93 781.097,214.269 781.097,218.981L781.097,221.325ZM763.508,242.774L763.508,248.644C763.508,249.63 763.64,250.75 763.679,251.058C763.74,251.097 763.82,251.105 763.907,251.133C764.132,251.207 764.394,251.237 764.691,251.237C765.222,251.237 765.641,251.176 765.901,250.758C766.129,250.391 766.166,249.806 766.166,249.083C766.166,247.693 766.088,246.54 765.898,245.632C765.788,245.104 765.654,244.682 765.449,244.451C765.051,244.013 764.404,243.455 763.508,242.774ZM765.084,214.872C764.925,214.762 764.688,214.813 764.398,214.813C763.952,214.813 763.593,214.866 763.364,215.23C763.16,215.555 763.142,216.09 763.142,216.75C763.142,217.929 763.223,218.853 763.542,219.45C763.55,219.465 763.558,219.48 763.565,219.495C763.683,219.726 763.905,219.934 764.196,220.203C764.483,220.467 764.822,220.742 765.214,221.027L765.214,216.93C765.214,216.108 765.12,215.188 765.084,214.872Z" style="fill:rgb(37,37,35);"/>
        </g>
        <g transform="matrix(0.951885,0.0616366,-0.0205579,0.999335,27.5011,-45.4815)">
            <path d="M787.213,203.38L812.921,203.38L812.921,215.246L802.63,215.246L802.63,226.488L812.262,226.488L812.262,237.767L802.63,237.767L802.63,250.805L813.946,250.805L813.946,262.67L787.213,262.67L787.213,203.38Z" style="fill:rgb(235,235,235);fill-rule:nonzero;"/>
            <path d="M804.194,248.161L813.946,248.161C814.81,248.161 815.51,249.345 815.51,250.805L815.51,262.67C815.51,264.13 814.81,265.313 813.946,265.313L787.213,265.313C786.349,265.313 785.649,264.13 785.649,262.67L785.649,203.38C785.649,201.92 786.349,200.737 787.213,200.737L812.921,200.737C813.785,200.737 814.485,201.92 814.485,203.38L814.485,215.246C814.485,216.705 813.785,217.889 812.921,217.889L804.194,217.889L804.194,223.845L812.262,223.845C813.125,223.845 813.826,225.028 813.826,226.488L813.826,237.767C813.826,239.227 813.125,240.411 812.262,240.411L804.194,240.411L804.194,248.161ZM787.213,203.38L812.921,203.38L812.921,215.246L802.63,215.246L802.63,226.488L812.262,226.488L812.262,237.767L802.63,237.767L802.63,250.805L813.946,250.805L813.946,262.67L787.213,262.67L787.213,203.38Z" style="fill:rgb(37,37,35);"/>
        </g>
        <g transform="matrix(0.952519,2.37939e-16,-9.02056e-17,1,22.8247,4.95124)">
            <path d="M818.377,203.38L833.758,203.38C838.617,203.38 842.297,203.758 844.799,204.515C847.302,205.271 849.322,206.802 850.86,209.107C852.398,211.413 853.167,215.128 853.167,220.251C853.167,223.716 852.624,226.131 851.538,227.497C850.451,228.864 848.309,229.913 845.111,230.645C848.675,231.451 851.092,232.788 852.362,234.657C853.631,236.526 854.266,239.39 854.266,243.25L854.266,248.746C854.266,252.752 853.808,255.72 852.893,257.65C851.977,259.58 850.518,260.899 848.517,261.607C846.515,262.316 842.413,262.67 836.212,262.67L818.377,262.67L818.377,203.38ZM833.795,213.524L833.795,226.708C834.454,226.684 834.967,226.671 835.333,226.671C836.847,226.671 837.811,226.299 838.226,225.554C838.641,224.81 838.849,222.68 838.849,219.164C838.849,217.309 838.678,216.008 838.336,215.264C837.994,214.519 837.549,214.049 836.999,213.854C836.45,213.659 835.382,213.549 833.795,213.524ZM833.795,235.936L833.795,252.526C835.968,252.453 837.353,252.111 837.951,251.5C838.549,250.89 838.849,249.389 838.849,246.996L838.849,241.466C838.849,238.927 838.58,237.389 838.043,236.852C837.506,236.315 836.09,236.01 833.795,235.936Z" style="fill:rgb(235,235,235);fill-rule:nonzero;"/>
            <path d="M851.434,230.644C852.241,231.254 852.892,231.932 853.389,232.664C854.961,234.978 855.83,238.471 855.83,243.25L855.83,248.746C855.83,253.513 855.203,257.007 854.113,259.303C853.003,261.643 851.264,263.336 848.837,264.194C846.783,264.921 842.575,265.313 836.212,265.313L818.377,265.313C817.514,265.313 816.813,264.13 816.813,262.67L816.813,203.38C816.813,201.92 817.514,200.737 818.377,200.737C818.377,200.737 833.758,200.737 833.758,200.737C838.738,200.737 842.51,201.138 845.075,201.913C847.896,202.765 850.164,204.53 851.898,207.13C853.718,209.858 854.732,214.19 854.732,220.251C854.732,224.772 853.889,227.835 852.472,229.618C852.189,229.973 851.843,230.317 851.434,230.644ZM818.377,203.38L833.758,203.38C838.617,203.38 842.297,203.758 844.799,204.515C847.302,205.271 849.322,206.802 850.86,209.107C852.398,211.413 853.167,215.128 853.167,220.251C853.167,223.716 852.624,226.131 851.538,227.497C850.451,228.864 848.309,229.913 845.111,230.645C848.675,231.451 851.092,232.788 852.362,234.657C853.631,236.526 854.266,239.39 854.266,243.25L854.266,248.746C854.266,252.752 853.808,255.72 852.893,257.65C851.977,259.58 850.518,260.899 848.517,261.607C846.515,262.316 842.413,262.67 836.212,262.67L818.377,262.67L818.377,203.38ZM833.795,235.936L833.795,252.526C835.968,252.453 837.353,252.111 837.951,251.5C838.549,250.89 838.849,249.389 838.849,246.996L838.849,241.466C838.849,238.927 838.58,237.389 838.043,236.852C837.506,236.315 836.09,236.01 833.795,235.936ZM835.359,238.684L835.359,249.794C836.177,249.717 836.754,249.579 837.083,249.293C837.107,249.203 837.161,248.982 837.184,248.821C837.256,248.319 837.284,247.71 837.284,246.996L837.284,241.466C837.284,240.518 837.157,239.427 837.107,239.04C837.005,238.997 836.874,238.97 836.718,238.926C836.349,238.821 835.896,238.741 835.359,238.684ZM833.795,213.524L833.795,226.708C834.454,226.684 834.967,226.671 835.333,226.671C836.847,226.671 837.811,226.299 838.226,225.554C838.641,224.81 838.849,222.68 838.849,219.164C838.849,217.309 838.678,216.008 838.336,215.264C837.994,214.519 837.549,214.049 836.999,213.854C836.45,213.659 835.382,213.549 833.795,213.524ZM835.359,216.229L835.359,224.028C835.962,224.026 836.457,223.964 836.843,223.815C836.906,223.791 836.983,223.749 837.044,223.712C837.082,223.479 837.143,223.066 837.173,222.704C837.249,221.779 837.284,220.598 837.284,219.164C837.284,218.095 837.297,217.313 837.1,216.884C836.992,216.649 836.851,216.502 836.677,216.441C836.392,216.339 835.953,216.272 835.359,216.229Z" style="fill:rgb(37,37,35);"/>
        </g>
        <g transform="matrix(0.952159,-0.0464685,0.0154989,0.999622,20.89,44.7032)">
            <path d="M886.447,203.38L895.263,262.67L879.507,262.67L878.68,252.013L873.165,252.013L872.238,262.67L856.299,262.67L864.163,203.38L886.447,203.38ZM878.276,241.503C877.496,234.787 876.713,226.487 875.927,216.6C874.357,227.953 873.371,236.254 872.969,241.503L878.276,241.503Z" style="fill:rgb(235,235,235);fill-rule:nonzero;"/>
            <path d="M874.516,254.656L873.785,263.054C873.672,264.352 873.014,265.313 872.238,265.313L856.299,265.313C855.824,265.313 855.374,264.948 855.078,264.322C854.781,263.695 854.668,262.875 854.772,262.092L862.637,202.802C862.797,201.595 863.431,200.737 864.163,200.737L886.447,200.737C887.164,200.737 887.789,201.561 887.964,202.736L896.78,262.026C896.898,262.816 896.793,263.653 896.497,264.295C896.2,264.938 895.745,265.313 895.263,265.313L879.507,265.313C878.722,265.313 878.058,264.329 877.956,263.014L877.307,254.656L874.516,254.656ZM886.447,203.38L895.263,262.67L879.507,262.67L878.68,252.013L873.165,252.013L872.238,262.67L856.299,262.67L864.163,203.38L886.447,203.38ZM878.276,241.503C877.496,234.787 876.713,226.487 875.927,216.6C874.357,227.953 873.371,236.254 872.969,241.503L878.276,241.503ZM875.616,231.254C875.267,234.154 874.988,236.689 874.78,238.86L876.387,238.86C876.13,236.495 875.873,233.959 875.616,231.254Z" style="fill:rgb(37,37,35);"/>
        </g>
        <g transform="matrix(0.951557,-0.0759434,0.0253298,0.99899,21.8827,71.2192)">
            <path d="M913.299,203.38L913.299,250.805L922.674,250.805L922.674,262.67L897.882,262.67L897.882,203.38L913.299,203.38Z" style="fill:rgb(235,235,235);fill-rule:nonzero;"/>
            <path d="M914.863,248.161L922.674,248.161C923.538,248.161 924.238,249.345 924.238,250.805L924.238,262.67C924.238,264.13 923.538,265.313 922.674,265.313L897.882,265.313C897.018,265.313 896.318,264.13 896.318,262.67L896.318,203.38C896.318,201.92 897.018,200.737 897.882,200.737L913.299,200.737C914.163,200.737 914.863,201.92 914.863,203.38L914.863,248.161ZM913.299,203.38L913.299,250.805L922.674,250.805L922.674,262.67L897.882,262.67L897.882,203.38L913.299,203.38Z" style="fill:rgb(37,37,35);"/>
        </g>
        <g transform="matrix(0.952159,-0.0464685,0.0154989,0.999622,25.6978,43.4323)">
            <path d="M941.827,203.38L941.827,250.805L951.202,250.805L951.202,262.67L926.41,262.67L926.41,203.38L941.827,203.38Z" style="fill:rgb(235,235,235);fill-rule:nonzero;"/>
            <path d="M943.391,248.161L951.202,248.161C952.066,248.161 952.766,249.345 952.766,250.805L952.766,262.67C952.766,264.13 952.066,265.313 951.202,265.313L926.41,265.313C925.546,265.313 924.845,264.13 924.845,262.67L924.845,203.38C924.845,201.92 925.546,200.737 926.41,200.737L941.827,200.737C942.691,200.737 943.391,201.92 943.391,203.38L943.391,248.161ZM941.827,203.38L941.827,250.805L951.202,250.805L951.202,262.67L926.41,262.67L926.41,203.38L941.827,203.38Z" style="fill:rgb(37,37,35);"/>
        </g>
        <g transform="matrix(0.952493,0.0125149,-0.00417416,0.999973,31.7944,-7.70803)">
            <path d="M1003.53,225.206L988.116,225.206L988.116,219.823C988.116,216.43 987.97,214.306 987.677,213.451C987.384,212.597 986.688,212.169 985.589,212.169C984.637,212.169 983.99,212.536 983.648,213.268C983.307,214 983.136,215.88 983.136,218.908L983.136,247.362C983.136,250.023 983.307,251.775 983.648,252.617C983.99,253.46 984.674,253.881 985.699,253.881C986.822,253.881 987.585,253.405 987.988,252.453C988.391,251.5 988.592,249.645 988.592,246.886L988.592,239.855L985.479,239.855L985.479,230.846L1003.53,230.846L1003.53,262.67L993.845,262.67L992.419,258.422C991.369,260.253 990.043,261.626 988.443,262.542C986.843,263.457 984.955,263.915 982.781,263.915C980.191,263.915 977.766,263.286 975.506,262.029C973.246,260.772 971.53,259.215 970.357,257.36C969.184,255.504 968.451,253.557 968.158,251.519C967.865,249.48 967.718,246.422 967.718,242.345L967.718,224.73C967.718,219.066 968.023,214.953 968.634,212.389C969.244,209.826 970.996,207.476 973.889,205.34C976.782,203.203 980.523,202.135 985.113,202.135C989.63,202.135 993.377,203.063 996.356,204.918C999.334,206.774 1001.27,208.977 1002.18,211.528C1003.08,214.08 1003.53,217.785 1003.53,222.643L1003.53,225.206Z" style="fill:rgb(235,235,235);fill-rule:nonzero;"/>
            <path d="M991.987,262.491C991.093,263.543 990.079,264.396 988.944,265.045C987.202,266.042 985.148,266.558 982.781,266.558C980.016,266.558 977.429,265.882 975.017,264.54C972.496,263.137 970.596,261.359 969.288,259.289C967.859,257.029 966.995,254.626 966.638,252.143C966.325,249.965 966.154,246.701 966.154,242.345L966.154,224.73C966.154,218.61 966.523,214.173 967.183,211.402C967.9,208.39 969.863,205.428 973.263,202.917C976.318,200.661 980.266,199.492 985.113,199.492C989.848,199.492 993.774,200.493 996.897,202.438C1000.32,204.568 1002.48,207.243 1003.52,210.171C1004.54,213.038 1005.1,217.183 1005.1,222.643L1005.1,225.206C1005.1,226.666 1004.4,227.85 1003.53,227.85L988.116,227.85C987.252,227.85 986.552,226.666 986.552,225.206L986.552,219.823C986.552,218.252 986.52,216.974 986.453,215.991C986.423,215.56 986.409,215.216 986.37,214.975C986.223,214.923 985.877,214.813 985.589,214.813C985.352,214.813 985.053,214.91 984.908,214.963C984.853,215.51 984.7,217.198 984.7,218.908L984.7,228.555C984.929,228.331 985.195,228.203 985.479,228.203L1003.53,228.203C1004.4,228.203 1005.1,229.386 1005.1,230.846L1005.1,262.67C1005.1,264.13 1004.4,265.313 1003.53,265.313L993.845,265.313C993.282,265.313 992.762,264.802 992.485,263.974L991.987,262.491ZM1003.53,225.206L988.116,225.206L988.116,219.823C988.116,216.43 987.97,214.306 987.677,213.451C987.384,212.597 986.688,212.169 985.589,212.169C984.637,212.169 983.99,212.536 983.648,213.268C983.307,214 983.136,215.88 983.136,218.908L983.136,247.362C983.136,250.023 983.307,251.775 983.648,252.617C983.99,253.46 984.674,253.881 985.699,253.881C986.822,253.881 987.585,253.405 987.988,252.453C988.391,251.5 988.592,249.645 988.592,246.886L988.592,239.855L985.479,239.855L985.479,230.846L1003.53,230.846L1003.53,262.67L993.845,262.67L992.419,258.422C991.369,260.253 990.043,261.626 988.443,262.542C986.843,263.457 984.955,263.915 982.781,263.915C980.191,263.915 977.766,263.286 975.506,262.029C973.246,260.772 971.53,259.215 970.357,257.36C969.184,255.504 968.451,253.557 968.158,251.519C967.865,249.48 967.718,246.422 967.718,242.345L967.718,224.73C967.718,219.066 968.023,214.953 968.634,212.389C969.244,209.826 970.996,207.476 973.889,205.34C976.782,203.203 980.523,202.135 985.113,202.135C989.63,202.135 993.377,203.063 996.356,204.918C999.334,206.774 1001.27,208.977 1002.18,211.528C1003.08,214.08 1003.53,217.785 1003.53,222.643L1003.53,225.206ZM984.7,242.146L984.7,247.362C984.7,248.52 984.733,249.48 984.807,250.242C984.84,250.581 984.858,250.858 984.913,251.047C984.96,251.077 985.07,251.142 985.149,251.167C985.312,251.217 985.495,251.237 985.699,251.237C985.992,251.237 986.248,251.2 986.466,251.1C986.57,251.053 986.666,251.033 986.716,250.915C987.005,250.232 987.028,248.867 987.028,246.886L987.028,242.498L985.479,242.498C985.195,242.498 984.929,242.37 984.7,242.146Z" style="fill:rgb(37,37,35);"/>
        </g>
        <g transform="matrix(0.952519,1.32189e-17,-6.93889e-18,1,29.4345,5.65293)">
            <path d="M1024.92,203.38L1024.92,250.805L1034.3,250.805L1034.3,262.67L1009.5,262.67L1009.5,203.38L1024.92,203.38Z" style="fill:rgb(235,235,235);fill-rule:nonzero;"/>
            <path d="M1026.48,248.161L1034.3,248.161C1035.16,248.161 1035.86,249.345 1035.86,250.805L1035.86,262.67C1035.86,264.13 1035.16,265.313 1034.3,265.313L1009.5,265.313C1008.64,265.313 1007.94,264.13 1007.94,262.67L1007.94,203.38C1007.94,201.92 1008.64,200.737 1009.5,200.737L1024.92,200.737C1025.78,200.737 1026.48,201.92 1026.48,203.38L1026.48,248.161ZM1024.92,203.38L1024.92,250.805L1034.3,250.805L1034.3,262.67L1009.5,262.67L1009.5,203.38L1024.92,203.38Z" style="fill:rgb(37,37,35);"/>
        </g>
        <g transform="matrix(0.952913,0.0125204,-0.0208999,0.999312,35.8865,-6.28123)">
            <path d="M1072.07,238.097C1072.07,244.054 1071.93,248.272 1071.65,250.75C1071.37,253.228 1070.49,255.492 1069.01,257.543C1067.53,259.594 1065.54,261.168 1063.02,262.267C1060.51,263.366 1057.58,263.915 1054.23,263.915C1051.06,263.915 1048.21,263.396 1045.68,262.359C1043.16,261.321 1041.12,259.765 1039.59,257.689C1038.05,255.614 1037.13,253.356 1036.84,250.914C1036.55,248.473 1036.4,244.201 1036.4,238.097L1036.4,227.953C1036.4,221.996 1036.54,217.778 1036.82,215.3C1037.1,212.822 1037.98,210.558 1039.46,208.507C1040.93,206.456 1042.93,204.882 1045.44,203.783C1047.96,202.684 1050.89,202.135 1054.23,202.135C1057.41,202.135 1060.26,202.654 1062.79,203.692C1065.31,204.729 1067.34,206.286 1068.88,208.361C1070.42,210.436 1071.34,212.694 1071.63,215.136C1071.92,217.577 1072.07,221.85 1072.07,227.953L1072.07,238.097ZM1056.65,218.615C1056.65,215.856 1056.5,214.092 1056.19,213.323C1055.89,212.554 1055.26,212.169 1054.31,212.169C1053.5,212.169 1052.88,212.481 1052.46,213.103C1052.03,213.726 1051.82,215.563 1051.82,218.615L1051.82,246.3C1051.82,249.743 1051.96,251.867 1052.24,252.672C1052.52,253.478 1053.17,253.881 1054.2,253.881C1055.25,253.881 1055.92,253.417 1056.21,252.489C1056.5,251.561 1056.65,249.352 1056.65,245.861L1056.65,218.615Z" style="fill:rgb(235,235,235);fill-rule:nonzero;"/>
            <path d="M1073.63,238.176L1073.63,228.032C1073.63,221.675 1073.47,217.227 1073.16,214.684C1072.8,211.686 1071.72,208.861 1069.84,206.313C1068.14,204.021 1065.9,202.269 1063.11,201.123C1060.47,200.04 1057.5,199.491 1054.19,199.491C1050.69,199.491 1047.64,200.074 1045.01,201.221C1042.25,202.428 1040.07,204.191 1038.44,206.444C1036.65,208.931 1035.62,211.723 1035.28,214.729C1034.99,217.304 1034.84,221.685 1034.84,227.875C1034.84,227.875 1034.84,238.019 1034.84,238.019C1034.84,244.375 1035,248.823 1035.31,251.366C1035.67,254.364 1036.74,257.189 1038.63,259.737C1040.33,262.029 1042.57,263.782 1045.36,264.927C1047.99,266.01 1050.97,266.559 1054.28,266.559C1057.77,266.559 1060.83,265.976 1063.46,264.829C1066.22,263.622 1068.4,261.859 1070.02,259.606C1071.82,257.119 1072.84,254.327 1073.18,251.321C1073.47,248.746 1073.63,244.365 1073.63,238.176ZM1072.07,238.097C1072.07,244.054 1071.93,248.272 1071.65,250.75C1071.37,253.228 1070.49,255.492 1069.01,257.543C1067.53,259.594 1065.54,261.168 1063.02,262.267C1060.51,263.366 1057.58,263.915 1054.23,263.915C1051.06,263.915 1048.21,263.396 1045.68,262.359C1043.16,261.321 1041.12,259.765 1039.59,257.689C1038.05,255.614 1037.13,253.356 1036.84,250.914C1036.55,248.473 1036.4,244.201 1036.4,238.097L1036.4,227.953C1036.4,221.996 1036.54,217.778 1036.82,215.3C1037.1,212.822 1037.98,210.558 1039.46,208.507C1040.93,206.456 1042.93,204.882 1045.44,203.783C1047.96,202.684 1050.89,202.135 1054.23,202.135C1057.41,202.135 1060.26,202.654 1062.79,203.692C1065.31,204.729 1067.34,206.286 1068.88,208.361C1070.42,210.436 1071.34,212.694 1071.63,215.136C1071.92,217.577 1072.07,221.85 1072.07,227.953L1072.07,238.097ZM1056.65,218.615C1056.65,215.856 1056.5,214.092 1056.19,213.323C1055.89,212.554 1055.26,212.169 1054.31,212.169C1053.5,212.169 1052.88,212.481 1052.46,213.103C1052.03,213.726 1051.82,215.563 1051.82,218.615L1051.82,246.3C1051.82,249.743 1051.96,251.867 1052.24,252.672C1052.52,253.478 1053.17,253.881 1054.2,253.881C1055.25,253.881 1055.92,253.417 1056.21,252.489C1056.5,251.561 1056.65,249.352 1056.65,245.861L1056.65,218.615ZM1054.91,214.922C1054.78,214.878 1054.54,214.814 1054.35,214.814C1054.05,214.814 1053.8,214.836 1053.61,215.005C1053.56,215.435 1053.38,217.102 1053.38,218.693C1053.38,218.693 1053.38,246.379 1053.38,246.379C1053.38,248.397 1053.52,250.365 1053.58,251.134C1053.73,251.18 1053.96,251.236 1054.15,251.236C1054.42,251.236 1054.76,251.11 1054.86,251.068C1055.07,250.251 1055.09,248.477 1055.09,245.782L1055.09,218.536C1055.09,217.313 1055.06,216.311 1054.99,215.529C1054.97,215.331 1054.94,215.096 1054.91,214.922Z" style="fill:rgb(37,37,35);"/>
        </g>
        <g transform="matrix(0.952159,-0.0464685,0.0154989,0.999622,27.4994,57.9087)">
            <path d="M1114.48,203.38L1106.63,262.67L1083.21,262.67L1074.3,203.38L1090.56,203.38C1092.45,219.712 1093.8,233.531 1094.61,244.835C1095.4,233.41 1096.25,223.267 1097.14,214.406L1098.22,203.38L1114.48,203.38Z" style="fill:rgb(235,235,235);fill-rule:nonzero;"/>
            <path d="M1094.53,225.502C1094.88,221.444 1095.24,217.602 1095.6,213.977L1096.67,202.952C1096.8,201.675 1097.45,200.737 1098.22,200.737L1114.48,200.737C1114.95,200.737 1115.4,201.101 1115.7,201.728C1115.99,202.354 1116.11,203.174 1116,203.957L1108.16,263.247C1108,264.454 1107.36,265.313 1106.63,265.313L1083.21,265.313C1082.5,265.313 1081.87,264.492 1081.69,263.32L1072.79,204.031C1072.67,203.24 1072.77,202.401 1073.07,201.757C1073.36,201.114 1073.82,200.737 1074.3,200.737L1090.56,200.737C1091.31,200.737 1091.95,201.632 1092.1,202.873C1093.04,211.042 1093.85,218.585 1094.53,225.502ZM1114.48,203.38L1106.63,262.67L1083.21,262.67L1074.3,203.38L1090.56,203.38C1092.45,219.712 1093.8,233.531 1094.61,244.835C1095.4,233.41 1096.25,223.267 1097.14,214.406L1098.22,203.38L1114.48,203.38Z" style="fill:rgb(37,37,35);"/>
        </g>
        <g transform="matrix(0.952159,-0.0464685,0.0154989,0.999622,28.2525,57.3088)">
            <path d="M1117.08,203.38L1142.78,203.38L1142.78,215.246L1132.49,215.246L1132.49,226.488L1142.12,226.488L1142.12,237.767L1132.49,237.767L1132.49,250.805L1143.81,250.805L1143.81,262.67L1117.08,262.67L1117.08,203.38Z" style="fill:rgb(235,235,235);fill-rule:nonzero;"/>
            <path d="M1134.06,248.161L1143.81,248.161C1144.67,248.161 1145.37,249.345 1145.37,250.805L1145.37,262.67C1145.37,264.13 1144.67,265.313 1143.81,265.313L1117.08,265.313C1116.21,265.313 1115.51,264.13 1115.51,262.67L1115.51,203.38C1115.51,201.92 1116.21,200.737 1117.08,200.737L1142.78,200.737C1143.65,200.737 1144.35,201.92 1144.35,203.38L1144.35,215.246C1144.35,216.705 1143.65,217.889 1142.78,217.889L1134.06,217.889L1134.06,223.845L1142.12,223.845C1142.99,223.845 1143.69,225.028 1143.69,226.488L1143.69,237.767C1143.69,239.227 1142.99,240.411 1142.12,240.411L1134.06,240.411L1134.06,248.161ZM1117.08,203.38L1142.78,203.38L1142.78,215.246L1132.49,215.246L1132.49,226.488L1142.12,226.488L1142.12,237.767L1132.49,237.767L1132.49,250.805L1143.81,250.805L1143.81,262.67L1117.08,262.67L1117.08,203.38Z" style="fill:rgb(37,37,35);"/>
        </g>
        <g transform="matrix(0.952159,-0.0464685,0.0154989,0.999622,29.6659,56.6898)">
            <path d="M1180.91,221.325L1166.59,221.325L1166.59,216.93C1166.59,214.879 1166.4,213.573 1166.04,213.012C1165.67,212.45 1165.06,212.169 1164.21,212.169C1163.28,212.169 1162.58,212.548 1162.1,213.305C1161.62,214.063 1161.39,215.211 1161.39,216.75C1161.39,218.729 1161.65,220.219 1162.19,221.221C1162.7,222.223 1164.15,223.431 1166.55,224.846C1173.41,228.919 1177.73,232.262 1179.52,234.874C1181.3,237.487 1182.19,241.698 1182.19,247.509C1182.19,251.732 1181.69,254.845 1180.7,256.847C1179.72,258.849 1177.81,260.527 1174.97,261.882C1172.14,263.237 1168.85,263.915 1165.09,263.915C1160.96,263.915 1157.44,263.134 1154.52,261.571C1151.6,260.009 1149.69,258.019 1148.79,255.602C1147.89,253.185 1147.43,249.755 1147.43,245.311L1147.43,241.43L1161.75,241.43L1161.75,248.644C1161.75,250.866 1161.95,252.294 1162.36,252.929C1162.76,253.563 1163.48,253.881 1164.5,253.881C1165.53,253.881 1166.29,253.478 1166.79,252.672C1167.29,251.867 1167.54,250.67 1167.54,249.083C1167.54,245.592 1167.06,243.309 1166.11,242.235C1165.13,241.161 1162.73,239.367 1158.9,236.852C1155.06,234.313 1152.53,232.47 1151.28,231.322C1150.04,230.175 1149,228.588 1148.18,226.561C1147.37,224.535 1146.96,221.947 1146.96,218.798C1146.96,214.257 1147.54,210.936 1148.7,208.837C1149.86,206.737 1151.73,205.095 1154.32,203.911C1156.91,202.727 1160.03,202.135 1163.69,202.135C1167.7,202.135 1171.11,202.782 1173.93,204.076C1176.75,205.37 1178.62,207 1179.53,208.965C1180.45,210.93 1180.91,214.269 1180.91,218.981L1180.91,221.325Z" style="fill:rgb(235,235,235);fill-rule:nonzero;"/>
            <path d="M1157.54,238.786C1154.05,236.456 1151.72,234.737 1150.53,233.643C1149.07,232.294 1147.85,230.432 1146.89,228.051C1145.92,225.632 1145.39,222.558 1145.39,218.798C1145.39,213.412 1146.18,209.523 1147.56,207.033C1148.87,204.65 1150.97,202.704 1153.91,201.36C1156.61,200.124 1159.87,199.492 1163.69,199.492C1167.86,199.492 1171.41,200.179 1174.34,201.525C1177.6,203.02 1179.7,205.06 1180.76,207.33C1181.83,209.624 1182.47,213.48 1182.47,218.981L1182.47,221.325C1182.47,222.784 1181.77,223.968 1180.91,223.968L1169.71,223.968C1175.33,227.503 1178.92,230.511 1180.54,232.878C1182.61,235.916 1183.75,240.751 1183.75,247.509C1183.75,252.517 1183.08,256.167 1181.91,258.541C1180.78,260.828 1178.63,262.878 1175.4,264.426C1172.44,265.839 1169.01,266.558 1165.09,266.558C1160.78,266.558 1157.1,265.724 1154.05,264.091C1150.67,262.28 1148.51,259.814 1147.47,257.013C1146.44,254.26 1145.87,250.373 1145.87,245.311L1145.87,241.43C1145.87,239.97 1146.57,238.786 1147.43,238.786L1157.54,238.786ZM1180.91,221.325L1166.59,221.325L1166.59,216.93C1166.59,214.879 1166.4,213.573 1166.04,213.012C1165.67,212.45 1165.06,212.169 1164.21,212.169C1163.28,212.169 1162.58,212.548 1162.1,213.305C1161.62,214.063 1161.39,215.211 1161.39,216.75C1161.39,218.729 1161.65,220.219 1162.19,221.221C1162.7,222.223 1164.15,223.431 1166.55,224.846C1173.41,228.919 1177.73,232.262 1179.52,234.874C1181.3,237.487 1182.19,241.698 1182.19,247.509C1182.19,251.732 1181.69,254.845 1180.7,256.847C1179.72,258.849 1177.81,260.527 1174.97,261.882C1172.14,263.237 1168.85,263.915 1165.09,263.915C1160.96,263.915 1157.44,263.134 1154.52,261.571C1151.6,260.009 1149.69,258.019 1148.79,255.602C1147.89,253.185 1147.43,249.755 1147.43,245.311L1147.43,241.43L1161.75,241.43L1161.75,248.644C1161.75,250.866 1161.95,252.294 1162.36,252.929C1162.76,253.563 1163.48,253.881 1164.5,253.881C1165.53,253.881 1166.29,253.478 1166.79,252.672C1167.29,251.867 1167.54,250.67 1167.54,249.083C1167.54,245.592 1167.06,243.309 1166.11,242.235C1165.13,241.161 1162.73,239.367 1158.9,236.852C1155.06,234.313 1152.53,232.47 1151.28,231.322C1150.04,230.175 1149,228.588 1148.18,226.561C1147.37,224.535 1146.96,221.947 1146.96,218.798C1146.96,214.257 1147.54,210.936 1148.7,208.837C1149.86,206.737 1151.73,205.095 1154.32,203.911C1156.91,202.727 1160.03,202.135 1163.69,202.135C1167.7,202.135 1171.11,202.782 1173.93,204.076C1176.75,205.37 1178.62,207 1179.53,208.965C1180.45,210.93 1180.91,214.269 1180.91,218.981L1180.91,221.325ZM1163.32,242.774L1163.32,248.644C1163.32,249.63 1163.45,250.75 1163.49,251.058C1163.55,251.097 1163.63,251.105 1163.72,251.133C1163.94,251.207 1164.2,251.237 1164.5,251.237C1165.03,251.237 1165.45,251.176 1165.71,250.758C1165.94,250.391 1165.98,249.806 1165.98,249.083C1165.98,247.693 1165.9,246.54 1165.71,245.632C1165.6,245.104 1165.46,244.682 1165.26,244.451C1164.86,244.013 1164.21,243.455 1163.32,242.774ZM1164.89,214.872C1164.73,214.762 1164.5,214.813 1164.21,214.813C1163.76,214.813 1163.4,214.866 1163.17,215.23C1162.97,215.555 1162.95,216.09 1162.95,216.75C1162.95,217.929 1163.03,218.853 1163.35,219.45C1163.36,219.465 1163.37,219.48 1163.38,219.495C1163.49,219.726 1163.71,219.934 1164.01,220.203C1164.29,220.467 1164.63,220.742 1165.02,221.027L1165.02,216.93C1165.02,216.108 1164.93,215.188 1164.89,214.872Z" style="fill:rgb(37,37,35);"/>
        </g>
    </g>
    <g transform="matrix(5.09446,-0.806883,0.701505,4.42913,-730.109,-913.281)">
        <g transform="matrix(50,1.38778e-15,1.38778e-15,69.4574,212.519,297.716)">
            <path d="M0.517,-0.246C0.519,-0.25 0.521,-0.252 0.523,-0.252C0.527,-0.252 0.529,-0.247 0.529,-0.237C0.529,-0.205 0.516,-0.179 0.491,-0.158C0.465,-0.137 0.441,-0.126 0.419,-0.126C0.396,-0.126 0.377,-0.132 0.361,-0.145C0.337,-0.098 0.309,-0.06 0.276,-0.033C0.243,-0.006 0.2,0.008 0.148,0.008C0.115,0.008 0.087,-0.002 0.067,-0.023C0.046,-0.043 0.035,-0.074 0.035,-0.116C0.035,-0.157 0.045,-0.2 0.064,-0.245C0.083,-0.289 0.111,-0.327 0.15,-0.359C0.188,-0.391 0.231,-0.407 0.278,-0.407C0.357,-0.407 0.397,-0.365 0.397,-0.281C0.397,-0.249 0.39,-0.215 0.376,-0.18C0.386,-0.166 0.4,-0.159 0.419,-0.159C0.454,-0.159 0.486,-0.188 0.517,-0.246ZM0.35,-0.308C0.347,-0.343 0.331,-0.361 0.302,-0.361C0.256,-0.361 0.211,-0.316 0.167,-0.227C0.143,-0.178 0.131,-0.133 0.131,-0.093C0.131,-0.053 0.148,-0.032 0.183,-0.03C0.212,-0.03 0.238,-0.045 0.263,-0.076C0.287,-0.106 0.307,-0.139 0.324,-0.176C0.301,-0.195 0.29,-0.22 0.29,-0.249C0.29,-0.267 0.295,-0.281 0.305,-0.292C0.314,-0.303 0.327,-0.308 0.344,-0.308L0.35,-0.308Z" style="fill:rgb(112,168,200);fill-rule:nonzero;"/>
            <path d="M0.369,-0.12C0.346,-0.079 0.319,-0.047 0.289,-0.022C0.253,0.009 0.206,0.024 0.148,0.024C0.109,0.024 0.077,0.012 0.052,-0.012C0.028,-0.035 0.016,-0.069 0.016,-0.115C0.016,-0.159 0.025,-0.204 0.045,-0.25C0.065,-0.297 0.095,-0.337 0.136,-0.37C0.178,-0.406 0.226,-0.423 0.278,-0.423C0.315,-0.423 0.345,-0.415 0.367,-0.399C0.399,-0.376 0.416,-0.337 0.416,-0.281C0.416,-0.25 0.41,-0.217 0.397,-0.183C0.403,-0.178 0.41,-0.175 0.419,-0.175C0.432,-0.175 0.443,-0.181 0.455,-0.192C0.47,-0.205 0.485,-0.225 0.499,-0.252L0.499,-0.252C0.506,-0.265 0.516,-0.268 0.523,-0.268C0.53,-0.268 0.536,-0.266 0.541,-0.26C0.545,-0.257 0.548,-0.249 0.548,-0.237C0.548,-0.2 0.534,-0.17 0.504,-0.146C0.474,-0.121 0.445,-0.11 0.418,-0.11C0.4,-0.11 0.384,-0.113 0.369,-0.12ZM0.517,-0.246C0.519,-0.25 0.521,-0.252 0.523,-0.252C0.527,-0.252 0.529,-0.247 0.529,-0.237C0.529,-0.205 0.516,-0.178 0.49,-0.157C0.465,-0.136 0.441,-0.126 0.419,-0.126C0.396,-0.126 0.377,-0.132 0.361,-0.145C0.337,-0.098 0.309,-0.06 0.276,-0.033C0.243,-0.006 0.2,0.008 0.148,0.008C0.115,0.008 0.087,-0.002 0.066,-0.022C0.045,-0.043 0.035,-0.074 0.035,-0.115C0.035,-0.157 0.045,-0.2 0.063,-0.244C0.083,-0.289 0.111,-0.327 0.149,-0.359C0.188,-0.391 0.231,-0.407 0.278,-0.407C0.357,-0.407 0.397,-0.365 0.397,-0.281C0.397,-0.249 0.39,-0.215 0.376,-0.18C0.386,-0.166 0.4,-0.159 0.419,-0.159C0.454,-0.159 0.486,-0.188 0.517,-0.246ZM0.35,-0.308C0.347,-0.343 0.331,-0.361 0.302,-0.361C0.256,-0.361 0.211,-0.316 0.167,-0.227C0.143,-0.178 0.131,-0.133 0.131,-0.093C0.131,-0.053 0.148,-0.032 0.183,-0.03C0.212,-0.03 0.238,-0.045 0.262,-0.075C0.287,-0.106 0.307,-0.139 0.324,-0.176C0.301,-0.195 0.29,-0.22 0.29,-0.249C0.29,-0.267 0.295,-0.281 0.305,-0.292C0.314,-0.303 0.327,-0.308 0.344,-0.308L0.35,-0.308ZM0.328,-0.323C0.325,-0.337 0.317,-0.345 0.302,-0.345C0.284,-0.345 0.267,-0.335 0.249,-0.317C0.227,-0.296 0.206,-0.264 0.185,-0.221C0.162,-0.174 0.15,-0.131 0.15,-0.093C0.15,-0.065 0.159,-0.048 0.184,-0.046C0.207,-0.046 0.227,-0.06 0.246,-0.084C0.268,-0.111 0.286,-0.141 0.302,-0.173C0.281,-0.194 0.271,-0.219 0.271,-0.249C0.271,-0.271 0.277,-0.289 0.289,-0.302C0.299,-0.313 0.312,-0.32 0.328,-0.323Z" style="fill:rgb(37,37,35);"/>
        </g>
        <g transform="matrix(50,1.38778e-15,1.38778e-15,69.4574,234.969,297.716)">
            <path d="M0.436,-0.26C0.44,-0.26 0.442,-0.254 0.442,-0.241C0.442,-0.228 0.437,-0.212 0.426,-0.194C0.415,-0.176 0.405,-0.159 0.395,-0.143C0.384,-0.127 0.37,-0.108 0.353,-0.087C0.336,-0.066 0.319,-0.049 0.302,-0.036C0.26,-0.005 0.218,0.01 0.175,0.01C0.133,0.01 0.099,-0.001 0.073,-0.023C0.047,-0.044 0.034,-0.077 0.034,-0.122C0.034,-0.19 0.059,-0.253 0.109,-0.311C0.159,-0.369 0.217,-0.398 0.284,-0.398C0.314,-0.398 0.338,-0.39 0.356,-0.375C0.374,-0.359 0.383,-0.34 0.383,-0.318C0.383,-0.281 0.365,-0.251 0.33,-0.228C0.295,-0.205 0.253,-0.194 0.205,-0.194C0.177,-0.194 0.156,-0.198 0.143,-0.205C0.13,-0.171 0.124,-0.141 0.124,-0.115C0.124,-0.059 0.148,-0.031 0.195,-0.031C0.223,-0.031 0.252,-0.042 0.281,-0.064C0.311,-0.085 0.337,-0.11 0.358,-0.137C0.379,-0.164 0.402,-0.202 0.429,-0.253C0.432,-0.258 0.434,-0.26 0.436,-0.26ZM0.33,-0.339C0.33,-0.358 0.321,-0.368 0.302,-0.368C0.276,-0.368 0.247,-0.352 0.215,-0.32C0.183,-0.288 0.167,-0.262 0.167,-0.242C0.167,-0.229 0.18,-0.222 0.205,-0.222C0.23,-0.222 0.257,-0.234 0.284,-0.259C0.312,-0.284 0.327,-0.31 0.33,-0.339Z" style="fill:rgb(112,168,200);fill-rule:nonzero;"/>
            <path d="M0.156,-0.183C0.147,-0.158 0.143,-0.135 0.143,-0.115C0.143,-0.071 0.158,-0.047 0.195,-0.047C0.219,-0.047 0.243,-0.057 0.269,-0.076C0.297,-0.096 0.321,-0.119 0.341,-0.145C0.362,-0.172 0.385,-0.21 0.411,-0.259C0.411,-0.26 0.411,-0.26 0.411,-0.26C0.419,-0.273 0.43,-0.276 0.436,-0.276C0.443,-0.276 0.451,-0.274 0.456,-0.266C0.459,-0.262 0.461,-0.254 0.461,-0.241C0.461,-0.226 0.456,-0.208 0.443,-0.187C0.433,-0.169 0.422,-0.152 0.412,-0.135C0.401,-0.119 0.387,-0.1 0.369,-0.078C0.351,-0.055 0.333,-0.038 0.315,-0.024C0.269,0.01 0.222,0.026 0.175,0.026C0.127,0.026 0.089,0.013 0.059,-0.011C0.03,-0.035 0.015,-0.072 0.015,-0.122C0.015,-0.193 0.041,-0.259 0.093,-0.32C0.148,-0.383 0.212,-0.414 0.284,-0.414C0.32,-0.414 0.348,-0.404 0.37,-0.386C0.392,-0.367 0.402,-0.344 0.402,-0.318C0.402,-0.275 0.382,-0.241 0.342,-0.215C0.303,-0.19 0.258,-0.178 0.205,-0.178C0.185,-0.178 0.169,-0.18 0.156,-0.183ZM0.436,-0.26C0.44,-0.26 0.442,-0.254 0.442,-0.241C0.442,-0.228 0.437,-0.212 0.426,-0.194C0.415,-0.176 0.405,-0.159 0.395,-0.143C0.384,-0.127 0.37,-0.108 0.353,-0.087C0.336,-0.066 0.319,-0.049 0.302,-0.036C0.26,-0.005 0.218,0.01 0.175,0.01C0.133,0.01 0.099,-0.001 0.073,-0.023C0.047,-0.044 0.034,-0.077 0.034,-0.122C0.034,-0.19 0.059,-0.253 0.109,-0.311C0.159,-0.369 0.217,-0.398 0.284,-0.398C0.314,-0.398 0.338,-0.39 0.356,-0.375C0.374,-0.359 0.383,-0.34 0.383,-0.318C0.383,-0.281 0.365,-0.251 0.33,-0.228C0.295,-0.205 0.253,-0.194 0.205,-0.194C0.177,-0.194 0.156,-0.198 0.143,-0.205C0.13,-0.171 0.124,-0.141 0.124,-0.115C0.124,-0.059 0.148,-0.031 0.195,-0.031C0.223,-0.031 0.252,-0.042 0.281,-0.064C0.311,-0.085 0.337,-0.11 0.357,-0.137C0.378,-0.164 0.402,-0.202 0.429,-0.253C0.432,-0.258 0.434,-0.26 0.436,-0.26ZM0.33,-0.339C0.33,-0.358 0.321,-0.368 0.302,-0.368C0.276,-0.368 0.247,-0.352 0.215,-0.32C0.183,-0.288 0.167,-0.262 0.167,-0.242C0.167,-0.229 0.18,-0.222 0.205,-0.222C0.23,-0.222 0.257,-0.234 0.284,-0.259C0.312,-0.284 0.327,-0.31 0.33,-0.339ZM0.311,-0.34C0.311,-0.345 0.311,-0.349 0.308,-0.351C0.306,-0.352 0.304,-0.352 0.302,-0.352C0.28,-0.352 0.257,-0.337 0.23,-0.31C0.202,-0.282 0.186,-0.26 0.186,-0.242C0.186,-0.24 0.188,-0.24 0.191,-0.239C0.195,-0.238 0.199,-0.238 0.205,-0.238C0.226,-0.238 0.247,-0.249 0.27,-0.27C0.294,-0.291 0.308,-0.315 0.311,-0.34Z" style="fill:rgb(37,37,35);"/>
        </g>
        <g transform="matrix(50,0,0,50,252.869,297.91)">
            <path d="M0.256,-0.65C0.237,-0.607 0.212,-0.563 0.181,-0.519C0.149,-0.474 0.125,-0.452 0.108,-0.452C0.103,-0.452 0.099,-0.453 0.094,-0.456C0.135,-0.517 0.16,-0.582 0.171,-0.652C0.172,-0.661 0.186,-0.665 0.214,-0.665C0.242,-0.665 0.256,-0.661 0.256,-0.652L0.256,-0.65Z" style="fill:rgb(112,168,200);fill-rule:nonzero;"/>
            <path d="M0.152,-0.655C0.153,-0.664 0.157,-0.672 0.165,-0.678C0.173,-0.683 0.189,-0.687 0.214,-0.687C0.239,-0.687 0.255,-0.683 0.263,-0.678C0.272,-0.671 0.275,-0.662 0.275,-0.652L0.275,-0.65C0.275,-0.647 0.275,-0.643 0.273,-0.64C0.254,-0.595 0.228,-0.55 0.195,-0.504C0.175,-0.476 0.157,-0.456 0.143,-0.444C0.129,-0.434 0.118,-0.43 0.108,-0.43C0.1,-0.43 0.093,-0.432 0.085,-0.436C0.08,-0.439 0.076,-0.444 0.075,-0.451C0.074,-0.457 0.075,-0.464 0.079,-0.47C0.117,-0.527 0.142,-0.589 0.152,-0.655ZM0.256,-0.65C0.237,-0.607 0.212,-0.563 0.18,-0.519C0.149,-0.474 0.125,-0.452 0.108,-0.452C0.103,-0.452 0.099,-0.453 0.094,-0.456C0.135,-0.517 0.16,-0.582 0.171,-0.652C0.172,-0.661 0.186,-0.665 0.214,-0.665C0.242,-0.665 0.256,-0.661 0.256,-0.652L0.256,-0.65Z" style="fill:rgb(37,37,35);"/>
        </g>
        <g transform="matrix(50,2.77556e-15,3.12055e-15,66.7408,193.019,298.806)">
            <path d="M-0.039,0.003L-0.04,0.009C-0.04,0.028 -0.035,0.041 -0.025,0.05C-0.016,0.059 -0.004,0.064 0.01,0.064C0.091,0.064 0.189,-0.079 0.304,-0.364C0.306,-0.369 0.311,-0.381 0.318,-0.398C0.325,-0.415 0.337,-0.442 0.355,-0.478C0.373,-0.514 0.395,-0.55 0.422,-0.587C0.448,-0.623 0.471,-0.645 0.491,-0.652C0.472,-0.657 0.437,-0.66 0.388,-0.66C0.339,-0.66 0.283,-0.649 0.223,-0.628C0.162,-0.607 0.126,-0.58 0.116,-0.549C0.115,-0.547 0.113,-0.546 0.112,-0.546C0.106,-0.546 0.103,-0.55 0.103,-0.559C0.103,-0.56 0.104,-0.564 0.105,-0.569C0.118,-0.606 0.136,-0.634 0.16,-0.654C0.184,-0.674 0.207,-0.686 0.231,-0.691C0.254,-0.696 0.282,-0.698 0.316,-0.698L0.363,-0.698L0.588,-0.697C0.549,-0.667 0.521,-0.644 0.506,-0.628C0.491,-0.612 0.475,-0.588 0.458,-0.555C0.441,-0.522 0.426,-0.485 0.411,-0.444C0.396,-0.403 0.384,-0.367 0.374,-0.336C0.364,-0.305 0.355,-0.277 0.346,-0.252C0.338,-0.227 0.327,-0.197 0.313,-0.16C0.298,-0.123 0.284,-0.091 0.271,-0.063C0.257,-0.035 0.24,-0.006 0.221,0.025C0.202,0.056 0.182,0.081 0.162,0.101C0.117,0.147 0.07,0.17 0.019,0.17C-0.012,0.17 -0.037,0.161 -0.056,0.143C-0.075,0.126 -0.085,0.102 -0.085,0.073C-0.085,0.059 -0.081,0.044 -0.074,0.029C-0.067,0.014 -0.055,0.005 -0.039,0.003Z" style="fill:rgb(112,168,200);fill-rule:nonzero;"/>
            <path d="M0.445,-0.642C0.429,-0.643 0.41,-0.643 0.388,-0.643C0.341,-0.643 0.288,-0.633 0.23,-0.613C0.176,-0.594 0.143,-0.572 0.135,-0.545C0.134,-0.543 0.134,-0.542 0.133,-0.541C0.127,-0.531 0.118,-0.529 0.112,-0.529C0.104,-0.529 0.097,-0.532 0.092,-0.537C0.087,-0.541 0.084,-0.548 0.084,-0.559C0.084,-0.561 0.084,-0.565 0.086,-0.573L0.086,-0.574C0.1,-0.614 0.12,-0.644 0.147,-0.666C0.174,-0.689 0.2,-0.702 0.226,-0.707C0.25,-0.712 0.28,-0.715 0.316,-0.715L0.363,-0.715L0.588,-0.714C0.596,-0.714 0.603,-0.709 0.606,-0.703C0.609,-0.696 0.607,-0.689 0.601,-0.684C0.563,-0.655 0.536,-0.633 0.521,-0.617C0.506,-0.602 0.492,-0.579 0.476,-0.548C0.459,-0.515 0.444,-0.479 0.43,-0.439C0.415,-0.399 0.403,-0.363 0.393,-0.332C0.383,-0.3 0.373,-0.272 0.365,-0.247C0.357,-0.222 0.345,-0.192 0.331,-0.155C0.316,-0.118 0.302,-0.085 0.288,-0.057C0.274,-0.028 0.258,0.002 0.238,0.033C0.218,0.065 0.197,0.091 0.177,0.112C0.128,0.162 0.075,0.187 0.019,0.187C-0.018,0.187 -0.048,0.176 -0.071,0.155C-0.093,0.134 -0.104,0.107 -0.104,0.073C-0.104,0.057 -0.1,0.04 -0.092,0.023C-0.082,0.001 -0.064,-0.011 -0.042,-0.014C-0.036,-0.014 -0.03,-0.013 -0.025,-0.009C-0.021,-0.005 -0.019,0 -0.02,0.005L-0.021,0.01C-0.02,0.023 -0.018,0.033 -0.011,0.039C-0.005,0.045 0.002,0.047 0.01,0.047C0.022,0.047 0.035,0.042 0.049,0.034C0.065,0.023 0.082,0.007 0.099,-0.014C0.155,-0.082 0.217,-0.2 0.286,-0.369C0.288,-0.375 0.292,-0.386 0.299,-0.403C0.306,-0.421 0.319,-0.448 0.337,-0.485C0.356,-0.521 0.378,-0.558 0.405,-0.595C0.419,-0.615 0.432,-0.63 0.445,-0.642ZM-0.039,0.003L-0.04,0.009C-0.04,0.028 -0.035,0.041 -0.025,0.05C-0.016,0.059 -0.004,0.064 0.01,0.064C0.091,0.064 0.189,-0.079 0.304,-0.364C0.306,-0.369 0.31,-0.381 0.317,-0.398C0.324,-0.415 0.337,-0.442 0.355,-0.478C0.373,-0.514 0.395,-0.55 0.422,-0.587C0.448,-0.623 0.471,-0.645 0.491,-0.652C0.472,-0.657 0.437,-0.66 0.388,-0.66C0.339,-0.66 0.283,-0.649 0.222,-0.628C0.161,-0.607 0.126,-0.58 0.116,-0.549C0.115,-0.547 0.113,-0.546 0.112,-0.546C0.106,-0.546 0.103,-0.55 0.103,-0.559C0.103,-0.56 0.104,-0.564 0.105,-0.569C0.118,-0.606 0.136,-0.634 0.16,-0.654C0.184,-0.674 0.207,-0.686 0.23,-0.691C0.254,-0.696 0.282,-0.698 0.316,-0.698L0.363,-0.698L0.588,-0.697C0.549,-0.667 0.521,-0.644 0.506,-0.628C0.491,-0.612 0.475,-0.588 0.458,-0.555C0.441,-0.522 0.426,-0.485 0.411,-0.444C0.396,-0.403 0.384,-0.367 0.374,-0.336C0.364,-0.305 0.355,-0.277 0.347,-0.252C0.338,-0.227 0.327,-0.197 0.313,-0.16C0.298,-0.123 0.284,-0.091 0.27,-0.063C0.257,-0.035 0.24,-0.006 0.221,0.025C0.202,0.056 0.182,0.081 0.162,0.101C0.117,0.147 0.07,0.17 0.019,0.17C-0.012,0.17 -0.037,0.161 -0.056,0.143C-0.075,0.126 -0.085,0.102 -0.085,0.073C-0.085,0.059 -0.081,0.044 -0.074,0.029C-0.067,0.014 -0.055,0.005 -0.039,0.003Z" style="fill:rgb(37,37,35);"/>
        </g>
    </g>
    <g transform="matrix(6.60707,-1.04646,1.05994,6.69219,-526.711,-280.745)">
        <path d="M101.907,69.272C101.541,72.838 99.307,75.505 95.207,77.272C94.241,77.672 93.257,77.972 92.257,78.172C97.457,79.138 100.057,81.605 100.057,85.572C100.057,88.938 98.266,91.772 94.682,94.072C91.099,96.372 86.657,97.522 81.357,97.522C78.757,97.522 76.591,97.113 74.857,96.297C73.124,95.48 72.257,94.122 72.257,92.222C72.257,89.888 73.491,85.822 75.957,80.022C78.424,74.222 80.707,69.272 82.807,65.172C83.141,64.505 83.391,64.038 83.557,63.772L81.757,64.022C79.157,64.388 76.766,65.005 74.582,65.872C72.399,66.738 70.924,67.822 70.157,69.122C70.124,69.222 70.041,69.272 69.907,69.272C69.774,69.272 69.707,69.18 69.707,68.997C69.707,68.813 69.724,68.688 69.757,68.622C71.024,65.155 73.341,63.038 76.707,62.272C78.241,61.938 80.291,61.772 82.857,61.772L92.707,61.772C95.741,61.772 98.032,62.422 99.582,63.722C101.132,65.022 101.907,66.655 101.907,68.622L101.907,69.272ZM96.707,67.972C96.407,65.038 94.091,63.472 89.757,63.272C88.191,65.305 86.124,69.122 83.557,74.722C80.991,80.322 79.357,84.363 78.657,86.847C77.957,89.33 77.607,91.213 77.607,92.497C77.607,93.78 77.974,94.613 78.707,94.997C79.441,95.38 80.657,95.572 82.357,95.572C85.524,95.572 88.291,94.713 90.657,92.997C93.024,91.28 94.207,88.722 94.207,85.322C94.207,83.655 93.799,82.222 92.982,81.022C92.166,79.822 90.974,79.122 89.407,78.922C87.341,79.488 85.341,79.772 83.407,79.772C82.841,79.772 82.557,79.655 82.557,79.422C82.557,78.655 83.074,78.13 84.107,77.847C85.141,77.563 86.124,77.422 87.057,77.422C87.991,77.422 88.907,77.488 89.807,77.622C91.974,76.955 93.666,75.755 94.882,74.022C96.099,72.288 96.707,70.488 96.707,68.622L96.707,67.972Z" style="fill:rgb(112,168,200);fill-rule:nonzero;"/>
        <path d="M69.055,68.369C70.418,64.642 72.919,62.377 76.547,61.551C78.12,61.209 80.224,61.034 82.857,61.034L92.707,61.034C95.959,61.034 98.405,61.766 100.066,63.159C101.794,64.608 102.655,66.43 102.655,68.622L102.655,69.272L102.651,69.346C102.258,73.169 99.9,76.055 95.496,77.952C95.344,78.015 95.192,78.076 95.039,78.134C98.911,79.485 100.805,81.994 100.805,85.572C100.805,89.175 98.924,92.229 95.09,94.691C91.396,97.061 86.821,98.26 81.357,98.26C78.628,98.26 76.355,97.82 74.536,96.963C72.519,96.013 71.51,94.432 71.51,92.222C71.51,89.835 72.745,85.668 75.268,79.736C77.743,73.918 80.034,68.952 82.137,64.845L82.208,64.704L81.863,64.752C79.326,65.11 76.992,65.711 74.861,66.556C72.896,67.337 71.539,68.282 70.832,69.447C70.685,69.792 70.397,70.01 69.907,70.01C69.639,70.01 69.432,69.916 69.271,69.769C69.106,69.617 68.96,69.375 68.96,68.997C68.96,68.71 69.004,68.503 69.055,68.369ZM101.907,69.272C101.541,72.838 99.307,75.505 95.207,77.272C94.241,77.672 93.257,77.972 92.257,78.172C97.457,79.138 100.057,81.605 100.057,85.572C100.057,88.938 98.266,91.772 94.682,94.072C91.099,96.372 86.657,97.522 81.357,97.522C78.757,97.522 76.591,97.113 74.857,96.297C73.124,95.48 72.257,94.122 72.257,92.222C72.257,89.888 73.491,85.822 75.957,80.022C78.424,74.222 80.707,69.272 82.807,65.172C83.141,64.505 83.391,64.038 83.557,63.772L81.757,64.022C79.157,64.388 76.766,65.005 74.582,65.872C72.399,66.738 70.924,67.822 70.157,69.122C70.124,69.222 70.041,69.272 69.907,69.272C69.774,69.272 69.707,69.18 69.707,68.997C69.707,68.813 69.724,68.688 69.757,68.622C71.024,65.155 73.341,63.038 76.707,62.272C78.241,61.938 80.291,61.772 82.857,61.772L92.707,61.772C95.741,61.772 98.032,62.422 99.582,63.722C101.132,65.022 101.907,66.655 101.907,68.622L101.907,69.272ZM96.707,67.972C96.407,65.038 94.091,63.472 89.757,63.272C88.191,65.305 86.124,69.122 83.557,74.722C80.991,80.322 79.357,84.363 78.657,86.847C77.957,89.33 77.607,91.213 77.607,92.497C77.607,93.78 77.974,94.613 78.707,94.997C79.441,95.38 80.657,95.572 82.357,95.572C85.524,95.572 88.291,94.713 90.657,92.997C93.024,91.28 94.207,88.722 94.207,85.322C94.207,83.655 93.799,82.222 92.982,81.022C92.166,79.822 90.974,79.122 89.407,78.922C87.341,79.488 85.341,79.772 83.407,79.772C82.841,79.772 82.557,79.655 82.557,79.422C82.557,78.655 83.074,78.13 84.107,77.847C85.141,77.563 86.124,77.422 87.057,77.422C87.991,77.422 88.907,77.488 89.807,77.622C91.974,76.955 93.666,75.755 94.882,74.022C96.099,72.288 96.707,70.488 96.707,68.622L96.707,67.972ZM89.455,79.674C87.374,80.232 85.358,80.51 83.407,80.51C82.875,80.51 82.51,80.403 82.297,80.271C82.182,80.2 82.088,80.119 82.016,80.029C80.722,83.059 79.842,85.397 79.378,87.045C78.702,89.442 78.355,91.258 78.355,92.497C78.355,93.426 78.526,94.067 79.057,94.345C79.719,94.691 80.823,94.834 82.357,94.834C85.355,94.834 87.975,94.027 90.215,92.402C92.395,90.821 93.46,88.453 93.46,85.322C93.46,83.816 93.1,82.518 92.362,81.433C91.692,80.448 90.719,79.867 89.455,79.674ZM95.96,68.013C95.689,65.527 93.692,64.275 90.118,64.032C88.602,66.106 86.646,69.773 84.238,75.026C83.859,75.855 83.499,76.649 83.16,77.409C83.381,77.304 83.629,77.212 83.907,77.136C85.011,76.833 86.061,76.684 87.057,76.684C87.968,76.684 88.863,76.745 89.744,76.867C91.666,76.244 93.176,75.157 94.268,73.602C95.391,72.002 95.96,70.344 95.96,68.622L95.96,68.013ZM69.461,68.854C69.475,68.818 69.492,68.784 69.511,68.751L69.532,68.717C69.503,68.758 69.48,68.804 69.461,68.854C69.456,68.866 69.452,68.879 69.447,68.891L69.461,68.854Z" style="fill:rgb(37,37,35);"/>
        <path d="M116.307,70.072L116.107,70.072C115.441,70.072 114.799,70.355 114.182,70.922C113.566,71.488 113.124,72.072 112.857,72.672C111.991,72.338 111.557,71.738 111.557,70.872C111.557,70.005 111.957,69.13 112.757,68.247C113.557,67.363 114.324,66.922 115.057,66.922C115.791,66.922 116.341,67.088 116.707,67.422C117.074,67.755 117.257,68.18 117.257,68.697C117.257,69.213 116.941,69.672 116.307,70.072ZM109.507,76.672L112.007,76.722L112.507,76.722C111.974,77.122 111.266,78.205 110.382,79.972C109.499,81.738 108.841,83.072 108.407,83.972C107.974,84.872 107.482,86.088 106.932,87.622C106.382,89.155 106.107,90.405 106.107,91.372C106.107,92.338 106.424,92.822 107.057,92.822C107.491,92.822 108.099,92.53 108.882,91.947C109.666,91.363 110.307,90.747 110.807,90.097C111.307,89.447 111.866,88.622 112.482,87.622C113.099,86.622 113.632,85.755 114.082,85.022C114.532,84.288 114.791,83.922 114.857,83.922C115.057,83.922 115.157,84.23 115.157,84.847C115.157,85.463 114.991,86.055 114.657,86.622C113.424,88.688 112.299,90.413 111.282,91.797C110.266,93.18 109.107,94.388 107.807,95.422C106.507,96.455 105.324,96.972 104.257,96.972C102.391,96.972 101.457,95.672 101.457,93.072C101.457,89.038 102.841,84.572 105.607,79.672C106.774,77.672 108.074,76.672 109.507,76.672Z" style="fill:rgb(112,168,200);fill-rule:nonzero;"/>
        <path d="M109.523,75.934C109.518,75.934 109.512,75.934 109.507,75.934C107.859,75.934 106.301,77.003 104.96,79.304C102.115,84.342 100.71,88.932 100.71,93.072C100.71,94.897 101.167,96.155 101.953,96.885C102.531,97.422 103.294,97.71 104.257,97.71C105.46,97.71 106.81,97.162 108.276,95.997C109.627,94.923 110.831,93.668 111.887,92.23C112.916,90.831 114.054,89.087 115.301,86.996C115.707,86.308 115.905,85.592 115.905,84.847C115.905,84.182 115.76,83.763 115.609,83.563C115.406,83.295 115.147,83.184 114.857,83.184C114.743,83.184 114.58,83.205 114.4,83.33C114.284,83.411 113.94,83.83 113.443,84.639C112.993,85.372 112.46,86.239 111.844,87.238C111.243,88.213 110.699,89.017 110.212,89.651C109.75,90.251 109.156,90.819 108.432,91.358C107.83,91.806 107.39,92.084 107.057,92.084C106.969,92.084 106.94,92.009 106.913,91.914C106.871,91.765 106.855,91.584 106.855,91.372C106.855,90.468 107.123,89.302 107.637,87.868C108.176,86.365 108.658,85.171 109.082,84.289C109.515,83.391 110.172,82.061 111.053,80.298C111.859,78.685 112.473,77.675 112.96,77.309C113.215,77.118 113.318,76.787 113.216,76.486C113.113,76.186 112.828,75.984 112.507,75.984L112.007,75.984C112.023,75.984 109.523,75.934 109.523,75.934ZM109.507,76.672L112.007,76.722L112.507,76.722C111.974,77.122 111.266,78.205 110.382,79.972C109.499,81.738 108.841,83.072 108.407,83.972C107.974,84.872 107.482,86.088 106.932,87.622C106.382,89.155 106.107,90.405 106.107,91.372C106.107,92.338 106.424,92.822 107.057,92.822C107.491,92.822 108.099,92.53 108.882,91.947C109.666,91.363 110.307,90.747 110.807,90.097C111.307,89.447 111.866,88.622 112.482,87.622C113.099,86.622 113.632,85.755 114.082,85.022C114.532,84.288 114.791,83.922 114.857,83.922C115.057,83.922 115.157,84.23 115.157,84.847C115.157,85.463 114.991,86.055 114.657,86.622C113.424,88.688 112.299,90.413 111.282,91.797C110.266,93.18 109.107,94.388 107.807,95.422C106.507,96.455 105.324,96.972 104.257,96.972C102.391,96.972 101.457,95.672 101.457,93.072C101.457,89.038 102.841,84.572 105.607,79.672C106.774,77.672 108.074,76.672 109.507,76.672ZM116.307,70.81C116.45,70.81 116.59,70.769 116.71,70.693C117.612,70.124 118.005,69.433 118.005,68.697C118.005,67.959 117.737,67.355 117.214,66.879C116.732,66.441 116.021,66.184 115.057,66.184C114.157,66.184 113.183,66.67 112.2,67.755C111.254,68.8 110.81,69.847 110.81,70.872C110.81,72.065 111.393,72.901 112.586,73.359C112.959,73.503 113.381,73.331 113.542,72.968C113.772,72.45 114.159,71.951 114.692,71.462C115.149,71.042 115.614,70.81 116.107,70.81L116.307,70.81ZM116.307,70.072L116.107,70.072C115.441,70.072 114.799,70.355 114.182,70.922C113.566,71.488 113.124,72.072 112.857,72.672C111.991,72.338 111.557,71.738 111.557,70.872C111.557,70.005 111.957,69.13 112.757,68.247C113.557,67.363 114.324,66.922 115.057,66.922C115.791,66.922 116.341,67.088 116.707,67.422C117.074,67.755 117.257,68.18 117.257,68.697C117.257,69.213 116.941,69.672 116.307,70.072Z" style="fill:rgb(37,37,35);"/>
        <path d="M134.657,76.672L136.657,76.672C135.957,77.138 135.191,78.155 134.357,79.722C133.524,81.288 132.816,82.83 132.232,84.347C131.649,85.863 130.891,87.938 129.957,90.572C127.891,96.505 126.091,100.447 124.557,102.397C123.024,104.347 121.299,105.847 119.382,106.897C117.466,107.947 115.724,108.472 114.157,108.472C110.824,108.472 109.157,107.422 109.157,105.322C109.157,104.488 109.416,103.705 109.932,102.972C110.449,102.238 111.141,101.872 112.007,101.872C112.874,101.872 113.457,102.222 113.757,102.922C113.424,103.122 113.166,103.472 112.982,103.972C112.799,104.472 112.707,104.947 112.707,105.397C112.707,105.847 112.882,106.222 113.232,106.522C113.582,106.822 114.041,106.972 114.607,106.972C116.207,106.972 117.657,106.163 118.957,104.547C120.257,102.93 121.357,101.055 122.257,98.922C122.491,98.355 124.091,93.955 127.057,85.722C123.124,93.122 119.424,96.822 115.957,96.822C113.691,96.822 112.557,95.288 112.557,92.222C112.557,89.888 113.066,87.522 114.082,85.122C115.099,82.722 116.557,80.68 118.457,78.997C120.357,77.313 122.441,76.472 124.707,76.472C125.741,76.472 126.732,76.705 127.682,77.172C128.632,77.638 129.241,78.405 129.507,79.472C130.007,78.405 130.599,77.672 131.282,77.272C131.966,76.872 133.091,76.672 134.657,76.672ZM129.307,79.922C128.974,78.855 128.191,78.322 126.957,78.322C124.757,78.322 122.616,79.863 120.532,82.947C118.449,86.03 117.407,88.772 117.407,91.172C117.407,92.172 117.807,92.672 118.607,92.672C119.474,92.672 120.491,92.13 121.657,91.047C122.824,89.963 123.874,88.688 124.807,87.222C127.807,82.588 129.307,80.155 129.307,79.922Z" style="fill:rgb(112,168,200);fill-rule:nonzero;"/>
        <path d="M129.598,77.851C129.997,77.313 130.434,76.91 130.901,76.637C131.663,76.191 132.911,75.934 134.657,75.934C134.657,75.934 136.657,75.934 136.657,75.934C136.986,75.934 137.276,76.146 137.372,76.456C137.468,76.766 137.348,77.102 137.076,77.283C136.442,77.706 135.774,78.646 135.019,80.065C134.2,81.604 133.504,83.119 132.931,84.609C132.35,86.121 131.594,88.19 130.664,90.812C128.559,96.855 126.71,100.863 125.148,102.849C123.548,104.884 121.745,106.446 119.745,107.542C117.697,108.664 115.831,109.21 114.157,109.21C110.242,109.21 108.41,107.789 108.41,105.322C108.41,104.34 108.71,103.415 109.319,102.55C109.987,101.602 110.886,101.134 112.007,101.134C113.223,101.134 114.025,101.652 114.446,102.634C114.59,102.971 114.463,103.362 114.146,103.552C113.938,103.677 113.8,103.911 113.685,104.223C113.534,104.635 113.455,105.026 113.455,105.397C113.455,105.624 113.546,105.813 113.722,105.965C113.946,106.156 114.245,106.234 114.607,106.234C116,106.234 117.241,105.495 118.372,104.088C119.631,102.522 120.696,100.705 121.565,98.644C121.724,98.258 122.52,96.085 123.952,92.127C122.849,93.594 121.765,94.756 120.704,95.616C119.084,96.929 117.495,97.56 115.957,97.56C114.838,97.56 113.949,97.237 113.277,96.631C112.342,95.787 111.81,94.331 111.81,92.222C111.81,89.795 112.336,87.333 113.393,84.837C114.454,82.333 115.976,80.204 117.958,78.448C120.009,76.631 122.261,75.734 124.707,75.734C125.856,75.734 126.959,75.992 128.015,76.511C128.68,76.837 129.208,77.283 129.598,77.851ZM134.657,76.672L136.657,76.672C135.957,77.138 135.191,78.155 134.357,79.722C133.524,81.288 132.816,82.83 132.232,84.347C131.649,85.863 130.891,87.938 129.957,90.572C127.891,96.505 126.091,100.447 124.557,102.397C123.024,104.347 121.299,105.847 119.382,106.897C117.466,107.947 115.724,108.472 114.157,108.472C110.824,108.472 109.157,107.422 109.157,105.322C109.157,104.488 109.416,103.705 109.932,102.972C110.449,102.238 111.141,101.872 112.007,101.872C112.874,101.872 113.457,102.222 113.757,102.922C113.424,103.122 113.166,103.472 112.982,103.972C112.799,104.472 112.707,104.947 112.707,105.397C112.707,105.847 112.882,106.222 113.232,106.522C113.582,106.822 114.041,106.972 114.607,106.972C116.207,106.972 117.657,106.163 118.957,104.547C120.257,102.93 121.357,101.055 122.257,98.922C122.491,98.355 124.091,93.955 127.057,85.722C123.124,93.122 119.424,96.822 115.957,96.822C113.691,96.822 112.557,95.288 112.557,92.222C112.557,89.888 113.066,87.522 114.082,85.122C115.099,82.722 116.557,80.68 118.457,78.997C120.357,77.313 122.441,76.472 124.707,76.472C125.741,76.472 126.732,76.705 127.682,77.172C128.632,77.638 129.241,78.405 129.507,79.472C130.007,78.405 130.599,77.672 131.282,77.272C131.966,76.872 133.091,76.672 134.657,76.672ZM129.307,79.922C128.974,78.855 128.191,78.322 126.957,78.322C124.757,78.322 122.616,79.863 120.532,82.947C118.449,86.03 117.407,88.772 117.407,91.172C117.407,92.172 117.807,92.672 118.607,92.672C119.474,92.672 120.491,92.13 121.657,91.047C122.824,89.963 123.874,88.688 124.807,87.222C127.807,82.588 129.307,80.155 129.307,79.922ZM128.505,79.911C128.237,79.332 127.714,79.06 126.957,79.06C124.95,79.06 123.055,80.544 121.154,83.356C119.172,86.29 118.155,88.888 118.155,91.172C118.155,91.494 118.167,91.739 118.322,91.868C118.392,91.926 118.491,91.934 118.607,91.934C119.337,91.934 120.163,91.422 121.145,90.509C122.268,89.467 123.277,88.24 124.178,86.824C126.656,82.997 128.102,80.694 128.505,79.911Z" style="fill:rgb(37,37,35);"/>
    </g>
</svg>
