<?xml version="1.0" encoding="UTF-8" standalone="no"?>
<!DOCTYPE svg PUBLIC "-//W3C//DTD SVG 1.1//EN" "http://www.w3.org/Graphics/SVG/1.1/DTD/svg11.dtd">
<svg width="100%" height="100%" viewBox="0 0 1200 400" version="1.1" xmlns="http://www.w3.org/2000/svg" xmlns:xlink="http://www.w3.org/1999/xlink" xml:space="preserve" xmlns:serif="http://www.serif.com/" style="fill-rule:evenodd;clip-rule:evenodd;stroke-linejoin:round;stroke-miterlimit:2;">
    <g transform="matrix(2.75757,-0.236407,0.300257,3.50235,-416.232,-605.151)">
        <g transform="matrix(119.959,3.12626e-15,-1.4861e-15,107.085,339.24,284.54)">
            <path d="M-0.039,0.003L-0.04,0.009C-0.04,0.028 -0.035,0.041 -0.025,0.05C-0.016,0.059 -0.004,0.064 0.01,0.064C0.091,0.064 0.189,-0.079 0.304,-0.364C0.306,-0.369 0.311,-0.381 0.318,-0.398C0.325,-0.415 0.337,-0.442 0.355,-0.478C0.373,-0.514 0.395,-0.55 0.422,-0.587C0.448,-0.623 0.471,-0.645 0.491,-0.652C0.472,-0.657 0.437,-0.66 0.388,-0.66C0.339,-0.66 0.283,-0.649 0.223,-0.628C0.162,-0.607 0.126,-0.58 0.116,-0.549C0.115,-0.547 0.113,-0.546 0.112,-0.546C0.106,-0.546 0.103,-0.55 0.103,-0.559C0.103,-0.56 0.104,-0.564 0.105,-0.569C0.118,-0.606 0.136,-0.634 0.16,-0.654C0.184,-0.674 0.207,-0.686 0.231,-0.691C0.254,-0.696 0.282,-0.698 0.316,-0.698L0.363,-0.698L0.588,-0.697C0.549,-0.667 0.521,-0.644 0.506,-0.628C0.491,-0.612 0.475,-0.588 0.458,-0.555C0.441,-0.522 0.426,-0.485 0.411,-0.444C0.396,-0.403 0.384,-0.367 0.374,-0.336C0.364,-0.305 0.355,-0.277 0.346,-0.252C0.338,-0.227 0.327,-0.197 0.313,-0.16C0.298,-0.123 0.284,-0.091 0.271,-0.063C0.257,-0.035 0.24,-0.006 0.221,0.025C0.202,0.056 0.182,0.081 0.162,0.101C0.117,0.147 0.07,0.17 0.019,0.17C-0.012,0.17 -0.037,0.161 -0.056,0.143C-0.075,0.126 -0.085,0.102 -0.085,0.073C-0.085,0.059 -0.081,0.044 -0.074,0.029C-0.067,0.014 -0.055,0.005 -0.039,0.003Z" style="fill:rgb(37,37,35);fill-rule:nonzero;"/>
            <path d="M0.447,-0.642C0.431,-0.643 0.411,-0.644 0.388,-0.644C0.341,-0.644 0.288,-0.633 0.229,-0.613C0.175,-0.594 0.142,-0.572 0.134,-0.545C0.133,-0.543 0.133,-0.542 0.132,-0.541C0.126,-0.532 0.118,-0.53 0.112,-0.53C0.104,-0.53 0.098,-0.533 0.093,-0.537C0.088,-0.541 0.085,-0.548 0.085,-0.559C0.085,-0.561 0.085,-0.565 0.087,-0.572L0.088,-0.574C0.101,-0.613 0.121,-0.644 0.147,-0.666C0.174,-0.688 0.201,-0.701 0.226,-0.707C0.251,-0.712 0.28,-0.714 0.316,-0.714L0.363,-0.714L0.588,-0.713C0.596,-0.713 0.602,-0.709 0.605,-0.703C0.608,-0.696 0.606,-0.689 0.6,-0.685C0.562,-0.656 0.535,-0.633 0.52,-0.618C0.505,-0.602 0.49,-0.579 0.475,-0.548C0.458,-0.515 0.443,-0.479 0.428,-0.439C0.414,-0.399 0.402,-0.363 0.392,-0.332C0.382,-0.3 0.372,-0.272 0.364,-0.247C0.356,-0.223 0.344,-0.192 0.33,-0.155C0.315,-0.118 0.301,-0.085 0.287,-0.057C0.273,-0.028 0.257,0.002 0.237,0.033C0.217,0.065 0.196,0.091 0.176,0.111C0.127,0.162 0.074,0.186 0.019,0.186C-0.018,0.186 -0.047,0.175 -0.07,0.155C-0.092,0.134 -0.103,0.107 -0.103,0.073C-0.103,0.057 -0.099,0.04 -0.091,0.023C-0.081,0.001 -0.064,-0.01 -0.042,-0.013C-0.036,-0.014 -0.03,-0.012 -0.026,-0.008C-0.022,-0.005 -0.02,0 -0.021,0.005L-0.022,0.01C-0.022,0.023 -0.019,0.033 -0.012,0.039C-0.006,0.045 0.001,0.048 0.01,0.048C0.023,0.048 0.036,0.043 0.05,0.034C0.066,0.023 0.083,0.007 0.1,-0.014C0.156,-0.082 0.218,-0.2 0.287,-0.369C0.289,-0.374 0.293,-0.386 0.3,-0.403C0.307,-0.421 0.32,-0.448 0.338,-0.485C0.357,-0.521 0.379,-0.558 0.406,-0.595C0.42,-0.615 0.434,-0.63 0.447,-0.642ZM-0.039,0.003L-0.04,0.009C-0.04,0.028 -0.035,0.041 -0.025,0.05C-0.016,0.059 -0.004,0.064 0.01,0.064C0.091,0.064 0.189,-0.079 0.304,-0.364C0.306,-0.369 0.31,-0.381 0.318,-0.398C0.325,-0.415 0.337,-0.442 0.355,-0.478C0.373,-0.514 0.395,-0.55 0.422,-0.587C0.448,-0.623 0.471,-0.645 0.491,-0.652C0.472,-0.657 0.437,-0.66 0.388,-0.66C0.339,-0.66 0.284,-0.649 0.223,-0.628C0.161,-0.607 0.126,-0.58 0.116,-0.549C0.115,-0.547 0.113,-0.546 0.112,-0.546C0.106,-0.546 0.103,-0.55 0.103,-0.559C0.103,-0.56 0.104,-0.564 0.105,-0.569C0.118,-0.606 0.136,-0.634 0.16,-0.654C0.184,-0.674 0.208,-0.686 0.23,-0.691C0.254,-0.696 0.282,-0.698 0.316,-0.698L0.363,-0.698L0.588,-0.697C0.549,-0.667 0.521,-0.644 0.506,-0.628C0.491,-0.612 0.475,-0.588 0.458,-0.555C0.441,-0.522 0.426,-0.485 0.411,-0.444C0.396,-0.403 0.384,-0.367 0.374,-0.336C0.364,-0.305 0.355,-0.277 0.347,-0.252C0.338,-0.227 0.327,-0.197 0.313,-0.16C0.298,-0.123 0.284,-0.091 0.271,-0.063C0.257,-0.035 0.24,-0.006 0.221,0.025C0.202,0.056 0.182,0.081 0.162,0.101C0.117,0.147 0.07,0.17 0.019,0.17C-0.012,0.17 -0.037,0.161 -0.056,0.143C-0.075,0.126 -0.085,0.102 -0.085,0.073C-0.085,0.059 -0.081,0.044 -0.074,0.029C-0.067,0.014 -0.055,0.005 -0.039,0.003Z" style="fill:rgb(37,37,35);"/>
        </g>
        <g transform="matrix(112.635,9.37877e-15,0,107.085,474.49,288.872)">
            <path d="M0.256,-0.65C0.237,-0.607 0.212,-0.563 0.181,-0.519C0.149,-0.474 0.125,-0.452 0.108,-0.452C0.103,-0.452 0.099,-0.453 0.094,-0.456C0.135,-0.517 0.16,-0.582 0.171,-0.652C0.172,-0.661 0.186,-0.665 0.214,-0.665C0.242,-0.665 0.256,-0.661 0.256,-0.652L0.256,-0.65Z" style="fill:rgb(37,37,35);fill-rule:nonzero;"/>
            <path d="M0.152,-0.654C0.153,-0.662 0.158,-0.669 0.169,-0.674C0.178,-0.678 0.193,-0.681 0.214,-0.681C0.235,-0.681 0.25,-0.678 0.259,-0.674C0.271,-0.669 0.275,-0.661 0.275,-0.652L0.275,-0.65C0.275,-0.648 0.275,-0.646 0.274,-0.645C0.255,-0.6 0.23,-0.556 0.197,-0.51C0.173,-0.477 0.153,-0.455 0.137,-0.445C0.126,-0.438 0.116,-0.436 0.108,-0.436C0.1,-0.436 0.091,-0.438 0.083,-0.443C0.075,-0.447 0.072,-0.457 0.077,-0.464C0.116,-0.523 0.141,-0.586 0.152,-0.654ZM0.256,-0.65C0.237,-0.607 0.212,-0.563 0.18,-0.519C0.149,-0.474 0.125,-0.452 0.108,-0.452C0.103,-0.452 0.099,-0.453 0.094,-0.456C0.135,-0.517 0.16,-0.582 0.171,-0.652C0.172,-0.661 0.186,-0.665 0.214,-0.665C0.242,-0.665 0.256,-0.661 0.256,-0.652L0.256,-0.65Z" style="fill:rgb(37,37,35);"/>
        </g>
        <g transform="matrix(112.635,9.37877e-15,0,107.085,482.87,279.773)">
            <path d="M0.451,-0.203C0.401,-0.12 0.356,-0.062 0.315,-0.029C0.274,0.004 0.222,0.02 0.157,0.02C0.12,0.02 0.088,0.013 0.063,-0.002C0.038,-0.016 0.025,-0.037 0.025,-0.065C0.025,-0.081 0.03,-0.096 0.039,-0.109C0.048,-0.122 0.061,-0.129 0.078,-0.129C0.094,-0.129 0.104,-0.123 0.109,-0.111C0.096,-0.098 0.09,-0.084 0.09,-0.067C0.09,-0.034 0.109,-0.017 0.146,-0.017C0.168,-0.017 0.187,-0.025 0.203,-0.04C0.22,-0.055 0.228,-0.072 0.228,-0.091C0.228,-0.109 0.224,-0.125 0.216,-0.139C0.208,-0.153 0.198,-0.165 0.187,-0.176C0.176,-0.187 0.164,-0.197 0.153,-0.208C0.126,-0.234 0.112,-0.264 0.112,-0.298C0.112,-0.331 0.125,-0.36 0.151,-0.383C0.176,-0.406 0.211,-0.417 0.256,-0.417C0.284,-0.417 0.308,-0.412 0.327,-0.402C0.346,-0.392 0.356,-0.377 0.356,-0.356C0.356,-0.335 0.35,-0.316 0.337,-0.301C0.324,-0.286 0.307,-0.278 0.285,-0.278C0.264,-0.278 0.253,-0.288 0.253,-0.308C0.253,-0.313 0.261,-0.32 0.276,-0.329C0.291,-0.338 0.299,-0.348 0.299,-0.358C0.299,-0.368 0.295,-0.376 0.286,-0.381C0.278,-0.386 0.266,-0.388 0.251,-0.388C0.236,-0.388 0.221,-0.383 0.206,-0.372C0.192,-0.361 0.185,-0.347 0.185,-0.33C0.185,-0.313 0.192,-0.296 0.207,-0.281C0.222,-0.266 0.238,-0.253 0.255,-0.242C0.272,-0.231 0.288,-0.217 0.303,-0.198C0.318,-0.179 0.325,-0.159 0.325,-0.138C0.325,-0.117 0.32,-0.098 0.311,-0.081C0.301,-0.064 0.289,-0.051 0.276,-0.041C0.313,-0.057 0.353,-0.097 0.395,-0.161C0.399,-0.166 0.406,-0.177 0.416,-0.194C0.439,-0.236 0.452,-0.257 0.455,-0.257C0.459,-0.257 0.461,-0.251 0.461,-0.238C0.461,-0.226 0.458,-0.214 0.451,-0.203Z" style="fill:rgb(37,37,35);fill-rule:nonzero;"/>
            <path d="M0.398,-0.201C0.421,-0.241 0.435,-0.263 0.44,-0.267C0.446,-0.273 0.452,-0.273 0.455,-0.273C0.462,-0.273 0.469,-0.271 0.475,-0.264C0.478,-0.26 0.48,-0.252 0.48,-0.238C0.48,-0.224 0.476,-0.21 0.468,-0.196L0.468,-0.196C0.417,-0.11 0.37,-0.051 0.329,-0.017C0.284,0.018 0.227,0.036 0.157,0.036C0.115,0.036 0.08,0.028 0.052,0.012C0.021,-0.006 0.006,-0.031 0.006,-0.065C0.006,-0.084 0.011,-0.101 0.022,-0.117C0.035,-0.136 0.054,-0.145 0.077,-0.145C0.104,-0.145 0.12,-0.135 0.128,-0.116C0.13,-0.111 0.128,-0.105 0.124,-0.101C0.114,-0.091 0.109,-0.08 0.109,-0.067C0.109,-0.055 0.112,-0.046 0.118,-0.04C0.124,-0.035 0.134,-0.033 0.146,-0.033C0.162,-0.033 0.177,-0.039 0.189,-0.051C0.202,-0.063 0.209,-0.076 0.209,-0.091C0.209,-0.106 0.205,-0.12 0.198,-0.132C0.191,-0.145 0.183,-0.156 0.172,-0.165C0.161,-0.176 0.15,-0.187 0.138,-0.197C0.108,-0.226 0.093,-0.26 0.093,-0.297C0.093,-0.336 0.107,-0.367 0.136,-0.393C0.165,-0.42 0.205,-0.433 0.256,-0.433C0.288,-0.433 0.315,-0.427 0.337,-0.416C0.362,-0.403 0.375,-0.383 0.375,-0.356C0.375,-0.331 0.368,-0.31 0.353,-0.292C0.336,-0.272 0.314,-0.262 0.285,-0.262C0.268,-0.262 0.255,-0.267 0.247,-0.275C0.239,-0.282 0.234,-0.293 0.234,-0.308C0.234,-0.312 0.235,-0.316 0.239,-0.321C0.243,-0.327 0.251,-0.334 0.264,-0.342C0.273,-0.347 0.28,-0.352 0.28,-0.358C0.28,-0.362 0.279,-0.365 0.275,-0.367C0.269,-0.371 0.261,-0.372 0.251,-0.372C0.24,-0.372 0.23,-0.368 0.22,-0.36C0.209,-0.352 0.204,-0.342 0.204,-0.33C0.204,-0.316 0.211,-0.303 0.222,-0.291C0.236,-0.277 0.251,-0.265 0.267,-0.255C0.286,-0.243 0.303,-0.227 0.319,-0.206C0.336,-0.184 0.344,-0.162 0.344,-0.138C0.344,-0.132 0.344,-0.126 0.343,-0.121C0.355,-0.135 0.366,-0.151 0.378,-0.169C0.378,-0.169 0.378,-0.169 0.378,-0.17C0.382,-0.175 0.389,-0.185 0.398,-0.201ZM0.451,-0.203C0.401,-0.12 0.356,-0.062 0.315,-0.029C0.274,0.004 0.222,0.02 0.157,0.02C0.12,0.02 0.088,0.013 0.063,-0.002C0.038,-0.016 0.025,-0.037 0.025,-0.065C0.025,-0.081 0.03,-0.096 0.039,-0.109C0.048,-0.122 0.061,-0.129 0.077,-0.129C0.094,-0.129 0.104,-0.123 0.109,-0.111C0.096,-0.098 0.09,-0.084 0.09,-0.067C0.09,-0.034 0.109,-0.017 0.146,-0.017C0.168,-0.017 0.187,-0.025 0.204,-0.04C0.22,-0.055 0.228,-0.072 0.228,-0.091C0.228,-0.109 0.224,-0.125 0.216,-0.139C0.208,-0.153 0.198,-0.165 0.187,-0.176C0.176,-0.187 0.164,-0.197 0.153,-0.208C0.126,-0.234 0.112,-0.264 0.112,-0.298C0.112,-0.331 0.125,-0.36 0.15,-0.383C0.176,-0.406 0.211,-0.417 0.256,-0.417C0.284,-0.417 0.308,-0.412 0.327,-0.402C0.346,-0.392 0.356,-0.377 0.356,-0.356C0.356,-0.335 0.35,-0.316 0.337,-0.301C0.324,-0.286 0.307,-0.278 0.286,-0.278C0.264,-0.278 0.253,-0.288 0.253,-0.308C0.253,-0.313 0.261,-0.32 0.276,-0.329C0.291,-0.338 0.299,-0.348 0.299,-0.358C0.299,-0.368 0.295,-0.375 0.286,-0.381C0.278,-0.386 0.266,-0.388 0.251,-0.388C0.236,-0.388 0.221,-0.383 0.207,-0.372C0.192,-0.361 0.185,-0.347 0.185,-0.33C0.185,-0.313 0.192,-0.296 0.207,-0.281C0.222,-0.266 0.238,-0.253 0.255,-0.242C0.272,-0.231 0.288,-0.217 0.303,-0.198C0.318,-0.179 0.325,-0.159 0.325,-0.137C0.325,-0.117 0.32,-0.098 0.311,-0.081C0.301,-0.064 0.289,-0.051 0.276,-0.041C0.313,-0.057 0.353,-0.097 0.395,-0.161C0.399,-0.166 0.406,-0.177 0.416,-0.194C0.439,-0.236 0.452,-0.257 0.455,-0.257C0.459,-0.257 0.461,-0.251 0.461,-0.239C0.461,-0.226 0.458,-0.214 0.451,-0.203Z" style="fill:rgb(37,37,35);"/>
        </g>
        <g transform="matrix(0.605425,0.142149,-0.144812,0.594292,338.954,57.1199)">
            <path d="M236.701,295.56C233.041,300.22 227.123,305.645 223.193,306.585C219.263,307.525 215.631,307.252 212.299,305.767C210.006,314.844 206.512,322.407 201.819,328.455C197.127,334.502 190.205,338.62 181.054,340.809C175.188,342.212 169.993,341.623 165.469,339.041C160.944,336.46 157.833,331.618 156.134,324.516C154.435,317.415 154.354,309.686 155.89,301.33C157.427,292.975 160.915,285.263 166.357,278.195C171.798,271.128 178.683,266.598 187.013,264.606C200.973,261.266 209.666,266.755 213.09,281.072C214.395,286.526 214.535,292.559 213.512,299.17C215.843,301.135 218.65,301.725 221.935,300.939C224.026,300.439 225.937,299.368 227.668,297.726C230.986,294.578 235.61,288.019 237.603,282.97C237.603,282.97 255.717,249.794 267.448,246.988C272.727,245.725 277.27,246.05 281.076,247.962C284.883,249.875 287.234,252.706 288.131,256.456C289.653,262.819 287.767,268.676 282.474,274.026C277.18,279.377 270.309,283.062 261.863,285.082C256.935,286.261 253.149,286.506 250.504,285.817C249.661,292.145 249.769,297.525 250.829,301.956C253.112,311.501 258.418,315.277 266.748,313.285C271.675,312.106 276.308,309.046 280.645,304.104C284.982,299.163 288.448,293.949 291.043,288.464C293.638,282.978 296.249,275.356 298.876,265.598C299.155,264.69 299.47,264.194 299.822,264.11C300.526,263.942 301.143,264.966 301.673,267.181C302.203,269.397 301.896,272.263 300.753,275.78C299.61,279.297 298.455,282.636 297.289,285.798C296.123,288.96 294.45,292.724 292.269,297.09C290.089,301.455 287.79,305.068 285.373,307.929C279.233,314.923 272.438,319.311 264.988,321.093C257.538,322.875 251.408,320.306 246.277,315.957C241.665,312.048 236.701,295.56 236.701,295.56ZM203.719,278.448C201.809,272.538 198.273,270.201 193.111,271.436C185.016,273.372 178.918,282.879 174.817,299.957C172.605,309.375 172.314,317.493 173.945,324.311C175.576,331.128 179.482,333.978 185.664,332.859C190.709,331.653 194.754,327.952 197.799,321.758C200.845,315.564 203.086,308.991 204.525,302.04C199.748,299.699 196.761,296.029 195.565,291.03C194.832,287.962 195.098,285.315 196.364,283.09C197.63,280.866 199.73,279.402 202.663,278.701L203.719,278.448ZM277.948,255.107C277.16,251.812 275.124,250.558 271.839,251.343C267.263,252.438 262.812,256.385 258.486,263.186C254.159,269.987 252.403,275.092 253.219,278.501C253.762,280.773 256.263,281.376 260.721,280.31C265.179,279.244 269.34,276.026 273.203,270.658C277.066,265.289 278.648,260.106 277.948,255.107Z" style="fill:rgb(37,37,35);"/>
            <path d="M217.179,297.783C218.374,298.414 219.735,298.563 221.279,298.193C222.695,297.854 223.96,297.09 225.133,295.978C228.198,293.07 232.455,287.004 234.296,282.34C234.339,282.233 234.388,282.127 234.445,282.023C234.445,282.023 243.519,265.429 253.064,254.487C257.716,249.156 262.706,245.219 266.791,244.242C273.116,242.729 278.544,243.185 283.104,245.477C287.659,247.766 290.481,251.149 291.554,255.637C293.292,262.901 291.133,269.587 285.089,275.695C279.289,281.558 271.775,285.614 262.519,287.828C259.079,288.651 256.112,289.04 253.619,289.05C253.23,293.679 253.432,297.709 254.253,301.138C256.038,308.603 259.576,312.097 266.091,310.539C270.307,309.531 274.177,306.814 277.888,302.587C282.026,297.872 285.334,292.899 287.809,287.665C290.353,282.288 292.9,274.816 295.475,265.251C295.483,265.222 295.492,265.193 295.501,265.164C296.3,262.564 298.158,261.606 299.166,261.364C300.467,261.053 301.834,261.162 303.039,262.174C303.712,262.738 304.55,264.076 305.096,266.362C305.706,268.912 305.431,272.208 304.116,276.255C302.961,279.806 301.795,283.178 300.618,286.371C299.423,289.612 297.711,293.469 295.476,297.943C293.171,302.559 290.727,306.374 288.13,309.447C281.379,317.137 273.835,321.88 265.645,323.839C256.936,325.922 249.658,323.139 243.66,318.055C242.087,316.722 240.406,314.138 238.924,311.123C237.447,308.119 236.111,304.681 235.114,301.894C233.722,303.263 232.258,304.553 230.819,305.65C228.341,307.537 225.861,308.849 223.849,309.331C220.644,310.097 217.601,310.208 214.718,309.666C212.338,317.589 208.985,324.301 204.705,329.817C199.501,336.523 191.858,341.128 181.711,343.555C174.778,345.213 168.642,344.5 163.294,341.448C158.248,338.569 154.605,333.255 152.711,325.335C150.941,317.938 150.844,309.888 152.445,301.184C154.061,292.392 157.739,284.279 163.464,276.843C169.482,269.026 177.143,264.063 186.356,261.86C192.879,260.3 198.404,260.475 202.957,262.215C209.509,264.718 214.212,270.629 216.514,280.253C217.786,285.572 218.015,291.415 217.179,297.783ZM236.701,295.56C233.041,300.22 227.123,305.645 223.193,306.585C219.263,307.525 215.631,307.252 212.299,305.767C210.006,314.844 206.512,322.407 201.819,328.455C197.127,334.502 190.205,338.62 181.054,340.809C175.188,342.212 169.993,341.623 165.469,339.041C160.944,336.46 157.833,331.618 156.134,324.516C154.435,317.415 154.354,309.686 155.89,301.33C157.427,292.975 160.915,285.263 166.357,278.195C171.798,271.128 178.683,266.598 187.013,264.606C200.973,261.266 209.666,266.755 213.09,281.072C214.395,286.526 214.535,292.559 213.512,299.17C215.843,301.135 218.65,301.725 221.935,300.939C224.026,300.439 225.937,299.368 227.668,297.726C230.986,294.578 235.61,288.019 237.603,282.97C237.603,282.97 255.717,249.794 267.448,246.988C272.727,245.725 277.27,246.05 281.076,247.962C284.883,249.875 287.234,252.706 288.131,256.456C289.653,262.819 287.767,268.676 282.474,274.026C277.18,279.377 270.309,283.062 261.863,285.082C256.935,286.261 253.149,286.506 250.504,285.817C249.661,292.145 249.769,297.525 250.829,301.956C253.112,311.501 258.418,315.277 266.748,313.285C271.675,312.106 276.308,309.046 280.645,304.104C284.982,299.163 288.448,293.949 291.043,288.464C293.638,282.978 296.249,275.356 298.876,265.598C299.155,264.69 299.47,264.194 299.822,264.11C300.526,263.942 301.143,264.966 301.673,267.181C302.203,269.397 301.896,272.263 300.753,275.78C299.61,279.297 298.455,282.636 297.289,285.798C296.123,288.96 294.45,292.724 292.269,297.09C290.089,301.455 287.79,305.068 285.373,307.929C279.233,314.923 272.438,319.311 264.988,321.093C257.538,322.875 251.408,320.306 246.277,315.957C241.665,312.048 236.701,295.56 236.701,295.56ZM203.719,278.448C201.809,272.538 198.273,270.201 193.111,271.436C185.016,273.372 178.918,282.879 174.817,299.957C172.605,309.375 172.314,317.493 173.945,324.311C175.576,331.128 179.482,333.978 185.664,332.859C190.709,331.653 194.754,327.952 197.799,321.758C200.845,315.564 203.086,308.991 204.525,302.04C199.748,299.699 196.761,296.029 195.565,291.03C194.832,287.962 195.098,285.315 196.364,283.09C197.63,280.866 199.73,279.402 202.663,278.701L203.719,278.448ZM199.275,276.842C198.059,274.591 196.388,273.555 193.768,274.181C190.557,274.949 187.935,277.377 185.516,281.148C182.598,285.697 180.197,292.064 178.238,300.223C176.125,309.221 175.81,316.979 177.368,323.492C178.525,328.328 180.771,330.815 185.115,330.086C189.153,329.078 192.136,325.901 194.584,320.921C197.28,315.438 199.322,309.648 200.714,303.553C196.24,300.852 193.365,296.961 192.142,291.848C191.241,288.081 191.677,284.83 193.232,282.097C194.577,279.734 196.586,277.977 199.275,276.842ZM277.948,255.107C277.16,251.812 275.124,250.558 271.839,251.343C267.263,252.438 262.812,256.385 258.486,263.186C254.159,269.987 252.403,275.092 253.219,278.501C253.762,280.773 256.263,281.376 260.721,280.31C265.179,279.244 269.34,276.026 273.203,270.658C277.066,265.289 278.648,260.106 277.948,255.107ZM274.497,255.807C274.286,254.924 274.119,254.245 273.494,254.013C273.222,253.913 272.885,253.996 272.496,254.089C268.635,255.012 265.192,258.569 261.541,264.307C257.75,270.267 255.928,274.695 256.642,277.682C256.713,277.977 257.077,277.963 257.503,277.955C258.228,277.94 259.081,277.8 260.064,277.564C263.767,276.679 267.039,273.848 270.248,269.389C273.623,264.698 275.079,260.176 274.497,255.807Z" style="fill:rgb(37,37,35);"/>
        </g>
    </g>
    <g transform="matrix(3.49259,-0.30133,0.332615,3.8552,-394.76,-197.082)">
        <g transform="matrix(0.505083,0,0,0.53844,39.9932,19.652)">
            <path d="M283.372,121.489C281.692,137.836 271.456,150.059 252.664,158.156C248.233,159.989 243.726,161.364 239.143,162.281C262.976,166.711 274.893,178.017 274.893,196.198C274.893,211.628 266.681,224.614 250.258,235.156C233.834,245.698 213.476,250.968 189.185,250.968C177.268,250.968 167.337,249.097 159.393,245.354C151.449,241.611 147.476,235.385 147.476,226.677C147.476,215.982 153.129,197.343 164.435,170.76C175.74,144.177 186.206,121.489 195.831,102.698C197.358,99.642 198.504,97.503 199.268,96.281L191.018,97.427C179.101,99.107 168.14,101.934 158.133,105.906C148.126,109.878 141.365,114.843 137.851,120.802C137.699,121.26 137.317,121.489 136.706,121.489C136.094,121.489 135.789,121.069 135.789,120.229C135.789,119.389 135.865,118.816 136.018,118.51C141.824,102.621 152.442,92.92 167.872,89.406C174.9,87.878 184.296,87.114 196.06,87.114L241.206,87.114C255.108,87.114 265.612,90.093 272.716,96.052C279.82,102.01 283.372,109.496 283.372,118.51L283.372,121.489ZM259.539,115.531C258.164,102.086 247.546,94.906 227.685,93.989C220.504,103.309 211.032,120.802 199.268,146.468C187.504,172.135 180.018,190.659 176.81,202.041C173.601,213.423 171.997,222.055 171.997,227.937C171.997,233.819 173.678,237.639 177.039,239.396C180.4,241.152 185.976,242.031 193.768,242.031C208.282,242.031 220.962,238.097 231.81,230.229C242.657,222.361 248.081,210.635 248.081,195.052C248.081,187.413 246.209,180.843 242.466,175.343C238.723,169.843 233.261,166.635 226.081,165.718C216.608,168.316 207.442,169.614 198.581,169.614C195.983,169.614 194.685,169.08 194.685,168.01C194.685,164.496 197.053,162.09 201.789,160.791C206.525,159.493 211.032,158.843 215.31,158.843C219.587,158.843 223.789,159.149 227.914,159.76C237.844,156.705 245.598,151.205 251.174,143.26C256.751,135.316 259.539,127.066 259.539,118.51L259.539,115.531Z" style="fill:rgb(37,37,35);fill-rule:nonzero;"/>
            <path d="M132.753,117.633L132.747,117.647C138.963,100.636 150.465,90.357 167.023,86.586C174.263,85.012 183.941,84.204 196.06,84.204L241.206,84.204C256.194,84.204 267.463,87.556 275.122,93.98C282.885,100.491 286.797,108.66 286.797,118.51L286.797,121.489L286.784,121.743C284.998,139.117 274.185,152.146 254.163,160.773C252.992,161.258 251.815,161.712 250.632,162.136C258.128,164.584 264.076,167.937 268.507,172.141C274.995,178.296 278.318,186.299 278.318,196.198C278.318,212.533 269.709,226.319 252.322,237.479C235.338,248.38 214.304,253.879 189.185,253.879C176.599,253.879 166.123,251.853 157.732,247.899C148.684,243.636 144.051,236.595 144.051,226.677C144.051,215.797 149.712,196.815 161.214,169.771C172.548,143.12 183.041,120.375 192.678,101.559C192.945,101.025 193.201,100.518 193.447,100.039L191.579,100.298C179.985,101.933 169.318,104.678 159.582,108.543C150.502,112.147 144.255,116.56 141.01,121.948C140.67,122.715 140.115,123.282 139.426,123.695C138.722,124.117 137.831,124.4 136.706,124.4C135.403,124.4 134.389,123.983 133.607,123.266C132.961,122.674 132.364,121.709 132.364,120.229C132.364,119.037 132.542,118.177 132.753,117.633ZM283.372,121.489C281.692,137.836 271.456,150.059 252.664,158.156C248.233,159.989 243.726,161.364 239.143,162.281C262.976,166.711 274.893,178.017 274.893,196.198C274.893,211.628 266.681,224.614 250.258,235.156C233.834,245.698 213.476,250.968 189.185,250.968C177.268,250.968 167.337,249.097 159.393,245.354C151.449,241.611 147.476,235.385 147.476,226.677C147.476,215.982 153.129,197.343 164.435,170.76C175.74,144.177 186.206,121.489 195.831,102.698C197.358,99.642 198.504,97.503 199.268,96.281L191.018,97.427C179.101,99.107 168.14,101.934 158.133,105.906C148.126,109.878 141.365,114.843 137.851,120.802C137.699,121.26 137.317,121.489 136.706,121.489C136.094,121.489 135.789,121.069 135.789,120.229C135.789,119.389 135.865,118.816 136.018,118.51C141.824,102.621 152.442,92.92 167.872,89.406C174.9,87.878 184.296,87.114 196.06,87.114L241.206,87.114C255.108,87.114 265.612,90.093 272.716,96.052C279.82,102.01 283.372,109.496 283.372,118.51L283.372,121.489ZM259.539,115.531C258.164,102.086 247.546,94.906 227.685,93.989C220.504,103.309 211.032,120.802 199.268,146.468C187.504,172.135 180.018,190.659 176.81,202.041C173.601,213.423 171.997,222.055 171.997,227.937C171.997,233.819 173.678,237.639 177.039,239.396C180.4,241.152 185.976,242.031 193.768,242.031C208.282,242.031 220.962,238.097 231.81,230.229C242.657,222.361 248.081,210.635 248.081,195.052C248.081,187.413 246.209,180.843 242.466,175.343C238.723,169.843 233.261,166.635 226.081,165.718C216.608,168.316 207.442,169.614 198.581,169.614C195.983,169.614 194.685,169.08 194.685,168.01C194.685,164.496 197.053,162.09 201.789,160.791C206.525,159.493 211.032,158.843 215.31,158.843C219.587,158.843 223.789,159.149 227.914,159.76C237.844,156.705 245.598,151.205 251.174,143.26C256.751,135.316 259.539,127.066 259.539,118.51L259.539,115.531ZM226.327,168.706C216.779,171.257 207.529,172.525 198.581,172.525C195.291,172.525 193.299,171.687 192.242,170.528C186.308,184.429 182.271,195.16 180.14,202.719C177.016,213.805 175.422,222.208 175.422,227.937C175.422,232.474 176.241,235.561 178.833,236.916C181.828,238.482 186.826,239.12 193.768,239.12C207.433,239.12 219.374,235.423 229.586,228.015C239.735,220.654 244.655,209.632 244.655,195.052C244.655,187.981 242.966,181.892 239.501,176.801C236.449,172.316 232.065,169.609 226.327,168.706ZM229.483,97.011C222.516,106.537 213.525,123.381 202.46,147.525C200.567,151.655 198.785,155.598 197.114,159.358C198.172,158.84 199.378,158.394 200.737,158.021C205.841,156.622 210.7,155.933 215.31,155.933C219.467,155.933 223.555,156.209 227.574,156.761C236.354,153.89 243.236,148.888 248.233,141.769C253.474,134.302 256.114,126.552 256.114,118.51L256.114,115.667C255.619,111.036 253.915,107.245 250.886,104.332C246.423,100.04 239.246,97.696 229.483,97.011Z" style="fill:rgb(37,37,35);"/>
        </g>
        <g transform="matrix(0.591032,-4.6499e-17,-7.02459e-17,0.44685,17.7202,31.6037)">
            <path d="M339.174,194.135C343.834,183.135 350.518,173.777 359.226,166.062C367.935,158.347 377.483,154.489 387.872,154.489C392.608,154.489 397.153,155.559 401.508,157.698C405.862,159.836 408.65,163.35 409.872,168.239C412.164,163.35 414.876,159.989 418.008,158.156C421.14,156.323 426.296,155.406 433.476,155.406L442.643,155.406C439.435,157.545 435.921,162.205 432.101,169.385C428.282,176.566 425.035,183.632 422.362,190.583C419.688,197.534 416.212,207.045 411.935,219.114C402.462,246.309 394.212,264.375 387.185,273.312C380.157,282.25 372.251,289.125 363.466,293.937C354.681,298.75 346.699,301.156 339.518,301.156C324.24,301.156 316.601,296.343 316.601,286.718C316.601,282.899 317.785,279.309 320.153,275.948C322.522,272.586 325.692,270.906 329.664,270.906C333.636,270.906 336.31,272.51 337.685,275.718C336.157,276.635 334.973,278.239 334.133,280.531C333.292,282.823 332.872,285 332.872,287.062C332.872,289.125 333.674,290.843 335.278,292.218C336.883,293.593 338.983,294.281 341.581,294.281C348.914,294.281 355.56,290.576 361.518,283.166C367.476,275.757 372.518,267.163 376.643,257.385C377.712,254.788 385.046,234.621 398.643,196.885C380.615,230.802 363.657,247.76 347.768,247.76C337.845,247.76 333.605,233.289 333.244,219.744C333.227,219.107 333.219,218.473 333.219,217.842M408.956,170.302C407.428,165.413 403.837,162.968 398.185,162.968C388.101,162.968 378.285,170.034 368.737,184.166C359.188,198.298 354.414,210.864 354.414,221.864C354.414,226.448 356.247,228.739 359.914,228.739C363.886,228.739 368.546,226.257 373.893,221.291C379.24,216.326 384.053,210.482 388.331,203.76C402.081,182.524 408.956,171.371 408.956,170.302" style="fill:rgb(37,37,35);fill-rule:nonzero;stroke:rgb(37,37,35);stroke-width:3.18px;"/>
        </g>
        <g transform="matrix(0.602842,-1.40189e-17,-2.21236e-17,0.488224,12.4926,25.2118)">
            <path d="M349.372,125.156L348.456,125.156C345.4,125.156 342.459,126.455 339.633,129.052C336.806,131.649 334.782,134.323 333.56,137.073C329.587,135.545 327.601,132.795 327.601,128.823C327.601,124.85 329.435,120.84 333.101,116.791C336.768,112.743 340.282,110.718 343.643,110.718C347.004,110.718 349.525,111.482 351.206,113.01C352.886,114.538 353.726,116.486 353.726,118.854C353.726,121.222 352.275,123.323 349.372,125.156M335.363,212.473C329.662,221.512 331.465,218.506 326.341,224.729C321.359,230.779 316.372,236.607 310.414,241.343C304.456,246.08 299.032,248.448 294.143,248.448C285.587,248.448 281.31,242.489 281.31,230.573C281.31,212.086 287.65,191.614 300.331,169.156C305.678,159.989 311.636,155.406 318.206,155.406L329.664,155.635L331.956,155.635C329.511,157.468 326.265,162.434 322.216,170.531C318.167,178.628 315.15,184.739 313.164,188.864C311.178,192.989 308.924,198.566 306.403,205.593C303.883,212.621 302.622,218.35 302.622,222.781C302.622,227.211 304.074,229.427 306.976,229.427C308.962,229.427 311.751,228.09 315.341,225.416C318.931,222.743 321.872,219.916 324.164,216.937C326.456,213.958 329.015,210.177 331.841,205.593C334.667,201.01 339.139,194.136 341.201,190.775" style="fill:rgb(37,37,35);fill-rule:nonzero;stroke:rgb(37,37,35);stroke-width:3.03px;"/>
        </g>
    </g>
</svg>
